<svg width="564" height="568" viewBox="0 0 564 568" fill="none" xmlns="http://www.w3.org/2000/svg">
<g clip-path="url(#clip0_19_573)">
<path d="M530.283 404.023C541.805 310.016 486.016 185.058 428.164 133.473C323.749 40.3129 237.001 58.3291 169.537 91.6974C102.074 125.066 92.4161 236.442 45.8384 286.841C-0.739332 337.24 -27.2628 405.024 43.4355 472.515C114.134 540.006 171.139 505.698 245.041 501.433C318.943 497.168 416.92 530.844 469.92 501.541C506.964 481.092 525.201 445.583 530.283 404.023Z" fill="#016788"/>
<path opacity="0.7" d="M530.283 404.023C541.805 310.016 486.016 185.058 428.164 133.473C323.749 40.3129 237.001 58.3291 169.537 91.6974C102.074 125.066 92.4161 236.442 45.8384 286.841C-0.739332 337.24 -27.2628 405.024 43.4355 472.515C114.134 540.006 171.139 505.698 245.041 501.433C318.943 497.168 416.92 530.844 469.92 501.541C506.964 481.092 525.201 445.583 530.283 404.023Z" fill="white"/>
<path d="M237.864 400.712V54.3409" stroke="#263238" stroke-linecap="round" stroke-linejoin="round"/>
<path d="M12.6456 404.13H231.194L563.23 511.288" stroke="#263238" stroke-linecap="round" stroke-linejoin="round"/>
<path d="M112.162 396.016H97.0677V146.469H128.227L114.781 97.9491H74.4258L60.9792 146.469H92.1389V396.016H76.998C73.1266 396.019 69.4109 397.54 66.6491 400.252C63.8872 402.964 62.2995 406.651 62.2269 410.521C62.2269 410.521 62.2269 410.598 62.2269 410.629C62.2269 410.629 62.2269 410.721 62.2269 410.752C62.6736 414.232 76.9672 417.034 94.5725 417.034C112.178 417.034 126.471 414.232 126.918 410.752C126.906 406.845 125.347 403.101 122.582 400.34C119.817 397.578 116.071 396.024 112.162 396.016Z" fill="#263238"/>
<path d="M313.306 37.1717V331.004L534.596 367.405V0.769928L313.306 37.1717ZM528.851 121.308L416.411 127.683V25.5921L528.851 7.6992V121.308ZM416.411 138.416L528.851 133.258V235.903L416.411 230.652V138.416ZM407.293 230.221L317.018 226.017V142.974L407.216 138.847L407.293 230.221ZM407.293 27.0396V128.238L317.018 133.304V41.3908L407.293 27.0396ZM317.018 235.688L407.216 240.877V341.136L317.018 326.784V235.688ZM416.335 342.583V241.4L528.774 247.868V360.476L416.335 342.583Z" fill="#263238" stroke="#263238" stroke-linecap="round" stroke-linejoin="round"/>
<path d="M236.986 546.997C334.77 546.997 414.039 522.309 414.039 491.855C414.039 461.401 334.77 436.713 236.986 436.713C139.202 436.713 59.9318 461.401 59.9318 491.855C59.9318 522.309 139.202 546.997 236.986 546.997Z" fill="#016788"/>
<path opacity="0.5" d="M236.986 546.997C334.77 546.997 414.039 522.309 414.039 491.855C414.039 461.401 334.77 436.713 236.986 436.713C139.202 436.713 59.9318 461.401 59.9318 491.855C59.9318 522.309 139.202 546.997 236.986 546.997Z" fill="white"/>
<path d="M222.03 248.715C222.03 248.715 181.906 243.956 155.505 264.544C129.105 285.132 106.402 371.162 106.925 412.369C107.449 453.575 122.775 474.131 161.312 491.008C199.85 507.885 271.642 501.571 311.766 488.898C351.89 476.226 365.09 431.924 364.566 408.149C364.042 384.374 337.642 356.95 328.662 351.175C319.683 345.401 294.345 333.236 281.684 314.219C269.023 295.202 250.525 253.996 222.03 248.715Z" fill="#016788"/>
<mask id="mask0_19_573" style="mask-type:luminance" maskUnits="userSpaceOnUse" x="106" y="248" width="259" height="254">
<path d="M222.03 248.715C222.03 248.715 181.906 243.956 155.505 264.544C129.105 285.132 106.402 371.162 106.925 412.369C107.449 453.575 122.775 474.131 161.312 491.008C199.85 507.885 271.642 501.571 311.766 488.898C351.89 476.226 365.09 431.924 364.566 408.149C364.042 384.374 337.642 356.95 328.662 351.175C319.683 345.401 294.345 333.236 281.684 314.219C269.023 295.202 250.525 253.996 222.03 248.715Z" fill="white"/>
</mask>
<g mask="url(#mask0_19_573)">
<path opacity="0.13" d="M319.128 486.05C303.957 484.002 285.966 479.89 272.35 471.622C243.593 454.175 236.416 421.315 226.142 408.996C215.869 396.678 197.385 397.709 189.176 384.359C180.966 371.009 194.305 272.474 170.693 266.315C165.901 264.931 160.94 264.221 155.952 264.205C155.814 264.329 155.644 264.421 155.505 264.544C129.105 285.132 106.402 371.162 106.925 412.369C107.449 453.575 122.775 474.131 161.312 491.008C199.85 507.885 271.642 501.571 311.766 488.899C314.277 488.103 316.736 487.152 319.128 486.05Z" fill="black"/>
</g>
<path d="M222.03 248.715C222.03 248.715 181.906 243.956 155.505 264.544C129.105 285.132 106.402 371.162 106.925 412.369C107.449 453.575 122.775 474.131 161.312 491.008C199.85 507.885 271.642 501.571 311.766 488.899C351.89 476.226 365.09 431.924 364.566 408.149C364.042 384.374 337.642 356.95 328.662 351.175C319.683 345.401 294.345 333.236 281.684 314.219C269.023 295.202 250.525 253.996 222.03 248.715Z" stroke="#263238" stroke-linecap="round" stroke-linejoin="round"/>
<path d="M206.227 267.316C206.227 267.316 180.042 272.32 175.421 276.94C170.8 281.559 151.547 353.932 151.547 353.932C156.9 352.628 162.515 352.896 167.72 354.702C175.421 357.781 176.191 365.866 176.961 369.715C177.58 374.312 177.965 378.938 178.117 383.574C178.117 383.574 255.946 376.629 272.504 372.795C289.062 368.961 314.261 367.174 314.261 367.174C314.261 367.174 271.688 271.181 265.142 267.716C258.596 264.252 231.256 263.867 227.405 264.637C223.555 265.406 206.227 267.316 206.227 267.316Z" fill="#263238" stroke="#263238" stroke-linecap="round" stroke-linejoin="round"/>
<path d="M180.427 356.242L186.973 302.732" stroke="white" stroke-linecap="round" stroke-linejoin="round"/>
<path d="M185.433 316.976L194.289 305.427" stroke="white" stroke-linecap="round" stroke-linejoin="round"/>
<path d="M212.003 323.905C212.003 323.905 237.032 315.821 253.59 315.821" stroke="white" stroke-linecap="round" stroke-linejoin="round"/>
<path d="M235.63 301.839L233.951 314.666C233.951 314.666 238.187 314.666 238.572 316.591C238.599 317.304 238.475 318.016 238.21 318.679C237.945 319.342 237.543 319.942 237.032 320.44C237.032 320.44 248.969 326.985 250.509 334.684" stroke="white" stroke-linecap="round" stroke-linejoin="round"/>
<path d="M220.597 252.965C220.597 252.965 206.226 257.584 204.163 261.172C202.099 264.76 203.654 289.921 203.654 293C203.654 296.08 205.456 291.199 206.997 287.611C208.537 284.023 213.928 278.618 215.715 279.142C217.501 279.665 218.549 281.698 218.549 285.039C218.549 288.381 222.646 293 226.25 295.556C229.854 298.113 233.181 300.7 233.181 300.7C233.181 300.7 240.621 289.921 242.423 287.087C244.225 284.254 243.963 278.372 244.21 276.308C244.456 274.245 249.092 281.96 250.124 279.912C251.156 277.864 247.814 276.062 244.21 270.411C240.605 264.76 241.653 258.862 236.262 254.751C230.871 250.639 224.71 251.917 220.597 252.965Z" fill="white"/>
<mask id="mask1_19_573" style="mask-type:luminance" maskUnits="userSpaceOnUse" x="203" y="251" width="48" height="50">
<path d="M220.597 252.965C220.597 252.965 206.226 257.584 204.163 261.172C202.099 264.76 203.654 289.921 203.654 293C203.654 296.08 205.456 291.199 206.997 287.611C208.537 284.023 213.928 278.618 215.715 279.142C217.501 279.665 218.549 281.698 218.549 285.039C218.549 288.381 222.646 293 226.25 295.556C229.854 298.113 233.181 300.7 233.181 300.7C233.181 300.7 240.621 289.921 242.423 287.087C244.225 284.254 243.963 278.372 244.21 276.308C244.456 274.245 249.092 281.96 250.124 279.912C251.156 277.864 247.814 276.062 244.21 270.411C240.605 264.76 241.653 258.862 236.262 254.751C230.871 250.639 224.71 251.917 220.597 252.965Z" fill="white"/>
</mask>
<g mask="url(#mask1_19_573)">
<path d="M204.163 261.156C202.807 263.559 203.023 275.539 203.331 284.254C206.612 280.035 213.373 272.059 217.286 273.568C222.276 275.492 224.186 289.674 224.186 289.674L220.813 252.965H220.597C220.597 252.965 206.227 257.584 204.163 261.156Z" fill="#016788"/>
<path opacity="0.5" d="M204.163 261.156C202.807 263.559 203.023 275.539 203.331 284.254C206.612 280.035 213.373 272.059 217.286 273.568C222.276 275.492 224.186 289.674 224.186 289.674L220.813 252.965H220.597C220.597 252.965 206.227 257.584 204.163 261.156Z" fill="white"/>
</g>
<path d="M220.597 252.965C220.597 252.965 206.226 257.584 204.163 261.172C202.099 264.76 203.654 289.921 203.654 293C203.654 296.08 205.456 291.199 206.997 287.611C208.537 284.023 213.928 278.618 215.715 279.142C217.501 279.665 218.549 281.698 218.549 285.039C218.549 288.381 222.646 293 226.25 295.556C229.854 298.113 233.181 300.7 233.181 300.7C233.181 300.7 240.621 289.921 242.423 287.087C244.225 284.254 243.963 278.372 244.21 276.308C244.456 274.245 249.092 281.96 250.124 279.912C251.156 277.864 247.814 276.062 244.21 270.411C240.605 264.76 241.653 258.862 236.262 254.751C230.871 250.639 224.71 251.917 220.597 252.965Z" stroke="#263238" stroke-linecap="round" stroke-linejoin="round"/>
<path d="M186.588 357.011C186.588 357.011 177.732 344.308 166.95 343.153C156.168 341.998 143.076 350.852 142.69 353.932C142.305 357.011 139.61 373.565 141.535 375.874C143.461 378.184 150.777 380.109 165.024 375.489C179.272 370.87 185.048 365.096 186.588 357.011Z" fill="white"/>
<mask id="mask2_19_573" style="mask-type:luminance" maskUnits="userSpaceOnUse" x="140" y="343" width="47" height="36">
<path d="M186.588 357.011C186.588 357.011 177.732 344.308 166.95 343.153C156.168 341.998 143.076 350.852 142.69 353.932C142.305 357.011 139.61 373.565 141.535 375.874C143.461 378.184 150.777 380.109 165.024 375.489C179.272 370.87 185.048 365.096 186.588 357.011Z" fill="white"/>
</mask>
<g mask="url(#mask2_19_573)">
<path d="M150.561 375.474C150.561 375.474 147.481 366.666 149.021 363.602C150.561 360.538 156.722 355.903 160.527 351.283C164.331 346.664 151.547 353.886 150.931 351.283C150.453 349.189 157.693 345.001 160.542 343.445C151.578 345.17 142.999 351.406 142.69 353.886C142.305 356.965 139.61 373.518 141.535 375.828C142.521 377.014 144.97 378.107 149.052 378.246C149.976 376.66 150.561 375.474 150.561 375.474Z" fill="#016788"/>
<path opacity="0.5" d="M150.561 375.474C150.561 375.474 147.481 366.666 149.021 363.602C150.561 360.538 156.722 355.903 160.527 351.283C164.331 346.664 151.547 353.886 150.931 351.283C150.453 349.189 157.693 345.001 160.542 343.445C151.578 345.17 142.999 351.406 142.69 353.886C142.305 356.965 139.61 373.518 141.535 375.828C142.521 377.014 144.97 378.107 149.052 378.246C149.976 376.66 150.561 375.474 150.561 375.474Z" fill="white"/>
</g>
<path d="M186.588 357.011C186.588 357.011 177.732 344.308 166.95 343.153C156.168 341.998 143.076 350.852 142.69 353.932C142.305 357.011 139.61 373.565 141.535 375.874C143.461 378.184 150.777 380.109 165.024 375.489C179.272 370.87 185.048 365.096 186.588 357.011Z" stroke="#263238" stroke-linecap="round" stroke-linejoin="round"/>
<path d="M156.553 360.476C156.553 360.476 142.105 366.204 141.535 377.414C141.212 383.574 151.547 386.268 162.329 386.268C173.111 386.268 188.513 372.795 198.525 367.02C208.537 361.246 231.641 347.772 234.336 346.618C237.032 345.463 246.273 348.542 250.124 349.697C253.794 350.483 257.538 350.871 261.291 350.852C261.291 350.852 266.682 359.321 269.377 359.321C272.073 359.321 263.601 346.618 262.446 343.923C261.291 341.228 242.423 335.069 240.112 335.069C237.802 335.069 183.893 348.542 175.806 351.622C167.72 354.702 156.553 360.476 156.553 360.476Z" fill="white"/>
<mask id="mask3_19_573" style="mask-type:luminance" maskUnits="userSpaceOnUse" x="141" y="335" width="129" height="52">
<path d="M156.553 360.476C156.553 360.476 142.105 366.204 141.535 377.414C141.212 383.574 151.547 386.268 162.329 386.268C173.111 386.268 188.513 372.795 198.525 367.02C208.537 361.246 231.641 347.772 234.336 346.618C237.032 345.463 246.273 348.542 250.124 349.697C253.794 350.483 257.538 350.871 261.291 350.852C261.291 350.852 266.682 359.321 269.377 359.321C272.073 359.321 263.601 346.618 262.446 343.923C261.291 341.228 242.423 335.069 240.112 335.069C237.802 335.069 183.893 348.542 175.806 351.622C167.72 354.702 156.553 360.476 156.553 360.476Z" fill="white"/>
</mask>
<g mask="url(#mask3_19_573)">
<path d="M186.757 358.875C208.768 347.865 240.112 335.069 240.112 335.069C237.802 335.069 183.893 348.542 175.806 351.622C167.72 354.702 156.553 360.476 156.553 360.476C156.553 360.476 142.105 366.204 141.535 377.414C141.212 383.574 151.547 386.268 162.329 386.268C173.111 386.268 188.513 372.795 198.525 367.02L204.594 363.51C189.884 365.373 170.215 367.128 186.757 358.875Z" fill="#016788"/>
<path opacity="0.5" d="M186.757 358.875C208.768 347.865 240.112 335.069 240.112 335.069C237.802 335.069 183.893 348.542 175.806 351.622C167.72 354.702 156.553 360.476 156.553 360.476C156.553 360.476 142.105 366.204 141.535 377.414C141.212 383.574 151.547 386.268 162.329 386.268C173.111 386.268 188.513 372.795 198.525 367.02L204.594 363.51C189.884 365.373 170.215 367.128 186.757 358.875Z" fill="white"/>
</g>
<path d="M156.553 360.476C156.553 360.476 142.105 366.204 141.535 377.414C141.212 383.574 151.547 386.268 162.329 386.268C173.111 386.268 188.513 372.795 198.525 367.02C208.537 361.246 231.641 347.772 234.336 346.618C237.032 345.463 246.273 348.542 250.124 349.697C253.794 350.483 257.538 350.871 261.291 350.852C261.291 350.852 266.682 359.321 269.377 359.321C272.073 359.321 263.601 346.618 262.446 343.923C261.291 341.228 242.423 335.069 240.112 335.069C237.802 335.069 183.893 348.542 175.806 351.622C167.72 354.702 156.553 360.476 156.553 360.476Z" stroke="#263238" stroke-linecap="round" stroke-linejoin="round"/>
<path d="M269.177 274.861L257.44 340.843L342.155 341.228L354.755 278.649C354.859 278.097 354.843 277.529 354.708 276.983C354.572 276.438 354.32 275.928 353.969 275.489C353.618 275.051 353.176 274.693 352.673 274.441C352.171 274.189 351.62 274.049 351.058 274.03L273.12 271.689C272.192 271.659 271.284 271.962 270.561 272.544C269.837 273.126 269.346 273.948 269.177 274.861Z" fill="white" stroke="#263238" stroke-linecap="round" stroke-linejoin="round"/>
<path d="M257.44 340.843L216.177 370.008L310.518 367.313L342.155 341.228L257.44 340.843Z" fill="white"/>
<mask id="mask4_19_573" style="mask-type:luminance" maskUnits="userSpaceOnUse" x="216" y="340" width="127" height="31">
<path d="M257.44 340.843L216.192 370.008L310.533 367.313L342.155 341.228L257.44 340.843Z" fill="white"/>
</mask>
<g mask="url(#mask4_19_573)">
<path d="M257.44 340.843L216.177 370.008L310.518 367.313L342.155 341.228L257.44 340.843Z" fill="#016788"/>
<path opacity="0.5" d="M257.44 340.843L216.177 370.008L310.518 367.313L342.155 341.228L257.44 340.843Z" fill="white"/>
</g>
<path d="M257.44 340.843L216.177 370.008L310.518 367.313L342.155 341.228L257.44 340.843Z" stroke="#263238" stroke-linecap="round" stroke-linejoin="round"/>
<path d="M288.631 369.715C288.631 369.715 322.517 340.073 356.018 330.064C389.518 320.055 396.45 321.595 395.679 336.609C394.909 351.622 378.737 430.154 367.955 450.172C357.173 470.19 343.695 506.761 344.081 513.69C344.466 520.619 357.558 541.022 369.11 548.336C380.662 555.651 379.507 564.505 372.19 566.044C364.874 567.584 356.403 570.279 331.373 554.111C306.344 537.942 295.947 514.845 297.487 509.07C299.028 503.296 315.2 495.597 321.747 484.048C328.293 472.499 339.075 429.384 339.845 409.751C340.47 397.356 343.07 385.14 347.546 373.565C347.546 373.565 305.189 381.264 292.867 388.963L288.631 369.715Z" fill="white"/>
<mask id="mask5_19_573" style="mask-type:luminance" maskUnits="userSpaceOnUse" x="288" y="323" width="108" height="245">
<path d="M288.631 369.715C288.631 369.715 322.517 340.073 356.018 330.064C389.518 320.055 396.45 321.595 395.679 336.609C394.909 351.622 378.737 430.154 367.955 450.172C357.173 470.19 343.695 506.761 344.081 513.69C344.466 520.619 357.558 541.022 369.11 548.336C380.662 555.651 379.507 564.505 372.19 566.044C364.874 567.584 356.403 570.279 331.373 554.111C306.344 537.942 295.947 514.845 297.487 509.07C299.028 503.296 315.2 495.597 321.747 484.048C328.293 472.499 339.075 429.384 339.845 409.751C340.47 397.356 343.07 385.14 347.546 373.565C347.546 373.565 305.189 381.264 292.867 388.963L288.631 369.715Z" fill="white"/>
</mask>
<g mask="url(#mask5_19_573)">
<path d="M288.631 369.715C288.631 369.715 322.517 340.073 356.018 330.064C389.518 320.055 396.45 321.595 395.679 336.609C394.909 351.622 378.737 430.154 367.955 450.172C357.173 470.19 343.695 506.761 344.081 513.69C344.466 520.619 357.558 541.022 369.11 548.336C380.662 555.651 379.507 564.505 372.19 566.044C364.874 567.584 356.403 570.279 331.373 554.111C306.344 537.942 295.947 514.845 297.487 509.07C299.028 503.296 315.2 495.597 321.747 484.048C328.293 472.499 339.075 429.384 339.845 409.751C340.47 397.356 343.07 385.14 347.546 373.565C347.546 373.565 305.189 381.264 292.867 388.963L288.631 369.715Z" fill="#016788"/>
<path opacity="0.5" d="M288.631 369.715C288.631 369.715 322.517 340.073 356.018 330.064C389.518 320.055 396.45 321.595 395.679 336.609C394.909 351.622 378.737 430.154 367.955 450.172C357.173 470.19 343.695 506.761 344.081 513.69C344.466 520.619 357.558 541.022 369.11 548.336C380.662 555.651 379.507 564.505 372.19 566.044C364.874 567.584 356.403 570.279 331.373 554.111C306.344 537.942 295.947 514.845 297.487 509.07C299.028 503.296 315.2 495.597 321.747 484.048C328.293 472.499 339.075 429.384 339.845 409.751C340.47 397.356 343.07 385.14 347.546 373.565C347.546 373.565 305.189 381.264 292.867 388.963L288.631 369.715Z" fill="white"/>
</g>
<path d="M288.631 369.715C288.631 369.715 322.517 340.073 356.018 330.064C389.518 320.055 396.45 321.595 395.679 336.609C394.909 351.622 378.737 430.154 367.955 450.172C357.173 470.19 343.695 506.761 344.081 513.69C344.466 520.619 357.558 541.022 369.11 548.336C380.662 555.651 379.507 564.505 372.19 566.044C364.874 567.584 356.403 570.279 331.373 554.111C306.344 537.942 295.947 514.845 297.487 509.07C299.028 503.296 315.2 495.597 321.747 484.048C328.293 472.499 339.075 429.384 339.845 409.751C340.47 397.356 343.07 385.14 347.546 373.565C347.546 373.565 305.189 381.264 292.867 388.963L288.631 369.715Z" stroke="#263238" stroke-linecap="round" stroke-linejoin="round"/>
<path d="M321.747 484.048C321.254 484.91 320.699 485.742 320.114 486.573C328.079 487.323 335.63 490.469 341.77 495.597C343.616 497.2 345.375 498.901 347.038 500.694C352.628 483.314 359.624 466.418 367.955 450.172C378.737 430.154 394.909 351.622 395.679 336.609C396.45 321.595 389.518 320.055 356.018 330.064C322.517 340.073 288.631 369.715 288.631 369.715L292.867 388.963C305.189 381.264 347.546 373.565 347.546 373.565C343.07 385.14 340.47 397.356 339.845 409.751C339.075 429.384 328.293 472.499 321.747 484.048Z" fill="white" stroke="#263238" stroke-linecap="round" stroke-linejoin="round"/>
<path d="M321.747 484.048C321.254 484.91 320.699 485.742 320.114 486.573C328.079 487.323 335.63 490.469 341.77 495.597C343.616 497.2 345.375 498.901 347.038 500.694C354.416 490.777 362.718 459.503 372.083 446.63C396.28 413.385 394.909 351.622 395.679 336.609C396.45 321.595 389.518 320.055 356.018 330.064C322.517 340.073 288.631 369.715 288.631 369.715L292.867 388.963C305.189 381.264 347.546 373.565 347.546 373.565C343.07 385.14 340.47 397.356 339.845 409.751C339.075 429.384 328.293 472.499 321.747 484.048Z" fill="#263238"/>
<mask id="mask6_19_573" style="mask-type:luminance" maskUnits="userSpaceOnUse" x="288" y="323" width="108" height="178">
<path d="M321.747 484.048C321.254 484.91 320.699 485.742 320.114 486.573C328.079 487.323 335.63 490.469 341.77 495.597C343.616 497.2 345.375 498.901 347.038 500.694C354.416 490.777 362.718 459.503 372.083 446.63C396.28 413.385 394.909 351.622 395.679 336.609C396.45 321.595 389.518 320.055 356.018 330.064C322.517 340.073 288.631 369.715 288.631 369.715L292.867 388.963C305.189 381.264 347.546 373.565 347.546 373.565C343.07 385.14 340.47 397.356 339.845 409.751C339.075 429.384 328.293 472.499 321.747 484.048Z" fill="white"/>
</mask>
<g mask="url(#mask6_19_573)">
<path opacity="0.53" d="M321.747 484.048C321.254 484.91 320.699 485.742 320.114 486.573C328.079 487.323 335.63 490.469 341.77 495.597C343.616 497.2 345.375 498.901 347.038 500.694C354.416 490.777 362.718 459.503 372.083 446.63C396.28 413.385 394.909 351.622 395.679 336.609C396.45 321.595 389.518 320.055 356.018 330.064C322.517 340.073 288.631 369.715 288.631 369.715L292.867 388.963C305.189 381.264 347.546 373.565 347.546 373.565C343.07 385.14 340.47 397.356 339.845 409.751C339.075 429.384 328.293 472.499 321.747 484.048Z" fill="white"/>
<path opacity="0.14" d="M379.399 334.576C378.798 329.11 319.236 354.317 294.114 365.188C290.633 367.96 288.631 369.715 288.631 369.715L292.867 388.963C305.189 381.264 347.546 373.565 347.546 373.565C343.07 385.14 340.47 397.356 339.845 409.751C339.075 429.384 328.293 472.499 321.747 484.048C321.254 484.91 320.699 485.742 320.114 486.573C324.355 487.028 328.507 488.102 332.436 489.761C341.662 470.082 351.597 447.184 356.295 429.276C364.766 396.939 380.169 341.505 379.399 334.576Z" fill="black"/>
<path d="M347.546 373.565C347.546 373.565 359.098 350.082 369.11 340.458" stroke="#263238" stroke-linecap="round" stroke-linejoin="round"/>
</g>
<path d="M321.747 484.048C321.254 484.91 320.699 485.742 320.114 486.573C328.079 487.323 335.63 490.469 341.77 495.597C343.616 497.2 345.375 498.901 347.038 500.694C354.416 490.777 362.718 459.503 372.083 446.63C396.28 413.385 394.909 351.622 395.679 336.609C396.45 321.595 389.518 320.055 356.018 330.064C322.517 340.073 288.631 369.715 288.631 369.715L292.867 388.963C305.189 381.264 347.546 373.565 347.546 373.565C343.07 385.14 340.47 397.356 339.845 409.751C339.075 429.384 328.293 472.499 321.747 484.048Z" stroke="#263238" stroke-linecap="round" stroke-linejoin="round"/>
<path d="M237.864 400.789C250.267 400.223 262.53 397.916 274.291 393.937C291.711 387.593 260.028 375.982 247.891 382.326C244.499 383.97 241.708 386.635 239.91 389.947C238.111 393.258 237.396 397.05 237.864 400.789Z" fill="#263238" stroke="#263238" stroke-linecap="round" stroke-linejoin="round"/>
<path d="M187.743 375.874C187.743 375.874 175.421 382.804 171.185 390.503C166.95 398.202 185.171 411.029 204.424 410.259C223.678 409.489 258.981 388.578 258.981 388.578C258.981 388.578 259.366 422.455 265.912 434.773C272.458 447.092 302.493 477.119 314.43 484.818C326.367 492.517 366.414 521.389 372.575 526.009C378.737 530.628 390.289 539.097 392.984 539.482C395.679 539.867 423.789 505.606 430.336 494.057C436.882 482.508 442.658 458.256 440.347 452.866C438.037 447.477 433.416 452.096 428.795 455.946C424.174 459.796 381.817 487.898 377.966 489.822C375.864 490.902 373.674 491.804 371.42 492.517C371.42 492.517 336.764 459.411 318.281 434.003C299.798 408.596 298.258 375.874 291.326 363.556C284.395 351.237 274.383 345.848 259.366 347.387C244.348 348.927 213.158 357.011 187.743 375.874Z" fill="white"/>
<mask id="mask7_19_573" style="mask-type:luminance" maskUnits="userSpaceOnUse" x="170" y="347" width="271" height="193">
<path d="M187.743 375.874C187.743 375.874 175.421 382.804 171.185 390.503C166.95 398.202 185.171 411.029 204.424 410.259C223.678 409.489 258.981 388.578 258.981 388.578C258.981 388.578 259.366 422.455 265.912 434.773C272.458 447.092 302.493 477.119 314.43 484.818C326.367 492.517 366.414 521.389 372.575 526.009C378.737 530.628 390.289 539.097 392.984 539.482C395.679 539.867 423.789 505.606 430.336 494.057C436.882 482.508 442.658 458.256 440.347 452.866C438.037 447.477 433.416 452.096 428.795 455.946C424.174 459.796 381.817 487.898 377.966 489.822C375.864 490.902 373.674 491.804 371.42 492.517C371.42 492.517 336.764 459.411 318.281 434.003C299.798 408.596 298.258 375.874 291.326 363.556C284.395 351.237 274.383 345.848 259.366 347.387C244.348 348.927 213.158 357.011 187.743 375.874Z" fill="white"/>
</mask>
<g mask="url(#mask7_19_573)">
<path d="M350.673 510.117C360.962 517.478 369.911 523.976 372.575 525.978C378.737 530.597 390.289 539.066 392.984 539.451C393.939 539.59 398.098 535.355 403.35 529.335L359.252 500.971L350.673 510.117Z" fill="#016788"/>
<path opacity="0.5" d="M350.673 510.117C360.962 517.478 369.911 523.976 372.575 525.978C378.737 530.597 390.289 539.066 392.984 539.451C393.939 539.59 398.098 535.355 403.35 529.335L359.252 500.971L350.673 510.117Z" fill="white"/>
</g>
<path d="M187.743 375.874C187.743 375.874 175.421 382.804 171.185 390.503C166.95 398.202 185.171 411.029 204.424 410.259C223.678 409.489 258.981 388.578 258.981 388.578C258.981 388.578 259.366 422.455 265.912 434.773C272.458 447.092 302.493 477.119 314.43 484.818C326.367 492.517 366.414 521.389 372.575 526.009C378.737 530.628 390.289 539.097 392.984 539.482C395.679 539.867 423.789 505.606 430.336 494.057C436.882 482.508 442.658 458.256 440.347 452.866C438.037 447.477 433.416 452.096 428.795 455.946C424.174 459.796 381.817 487.898 377.966 489.822C375.864 490.902 373.674 491.804 371.42 492.517C371.42 492.517 336.764 459.411 318.281 434.003C299.798 408.596 298.258 375.874 291.326 363.556C284.395 351.237 274.383 345.848 259.366 347.387C244.348 348.927 213.158 357.011 187.743 375.874Z" stroke="#263238" stroke-linecap="round" stroke-linejoin="round"/>
<path d="M369.033 490.207C360.885 482.262 330.341 441.287 318.281 417.727C300.614 383.204 298.704 371.44 291.773 359.121C284.842 346.802 274.383 345.848 259.427 347.387C244.471 348.927 217.532 351.714 184.57 370.408C184.57 370.408 170.708 377.922 166.488 385.622C162.267 393.321 177.685 412.707 204.486 410.259C223.678 408.504 259.042 388.578 259.042 388.578C259.042 388.578 259.427 422.455 265.974 434.773C272.52 447.092 302.555 477.119 314.492 484.818C322.055 489.699 340.923 503.096 355.294 513.413C358.836 500.524 365.198 493.472 369.033 490.207Z" fill="#263238"/>
<mask id="mask8_19_573" style="mask-type:luminance" maskUnits="userSpaceOnUse" x="165" y="346" width="205" height="168">
<path d="M369.033 490.207C360.885 482.262 330.341 441.287 318.281 417.727C300.614 383.204 298.704 371.44 291.773 359.121C284.842 346.802 274.383 345.848 259.427 347.387C244.471 348.927 217.532 351.714 184.57 370.408C184.57 370.408 170.708 377.922 166.488 385.622C162.267 393.321 177.685 412.707 204.486 410.259C223.678 408.504 259.042 388.578 259.042 388.578C259.042 388.578 259.427 422.455 265.974 434.773C272.52 447.092 302.555 477.119 314.492 484.818C322.055 489.699 340.923 503.096 355.294 513.413C358.836 500.524 365.198 493.472 369.033 490.207Z" fill="white"/>
</mask>
<g mask="url(#mask8_19_573)">
<path opacity="0.53" d="M369.033 490.207C360.885 482.262 330.341 441.287 318.281 417.727C300.614 383.204 298.704 371.44 291.773 359.121C284.842 346.802 274.383 345.848 259.427 347.387C244.471 348.927 217.532 351.714 184.57 370.408C184.57 370.408 170.708 377.922 166.488 385.622C162.267 393.321 177.685 412.707 204.486 410.259C223.678 408.504 259.042 388.578 259.042 388.578C259.042 388.578 259.427 422.455 265.974 434.773C272.52 447.092 302.555 477.119 314.492 484.818C322.055 489.699 340.923 503.096 355.294 513.413C358.836 500.524 365.198 493.472 369.033 490.207Z" fill="white"/>
<path opacity="0.14" d="M291.604 435.435C280.052 406.178 286.983 347.665 254.637 355.364C231.071 360.969 187.867 380.894 166.164 391.288C168.736 400.127 182.907 412.23 204.424 410.259C223.616 408.504 258.981 388.578 258.981 388.578C258.981 388.578 259.366 422.455 265.912 434.773C272.458 447.092 302.493 477.119 314.43 484.818C321.993 489.699 340.861 503.096 355.232 513.413C356.469 508.906 358.276 504.575 360.608 500.524C331.928 479.321 298.057 451.773 291.604 435.435Z" fill="black"/>
<path d="M258.981 388.578L257.826 368.56" stroke="#263238" stroke-linecap="round" stroke-linejoin="round"/>
</g>
<path d="M369.033 490.207C360.885 482.262 330.341 441.287 318.281 417.727C300.614 383.204 298.704 371.44 291.773 359.121C284.842 346.802 274.383 345.848 259.427 347.387C244.471 348.927 217.532 351.714 184.57 370.408C184.57 370.408 170.708 377.922 166.488 385.622C162.267 393.321 177.685 412.707 204.486 410.259C223.678 408.504 259.042 388.578 259.042 388.578C259.042 388.578 259.427 422.455 265.974 434.773C272.52 447.092 302.555 477.119 314.492 484.818C322.055 489.699 340.923 503.096 355.294 513.413C358.836 500.524 365.198 493.472 369.033 490.207Z" stroke="#263238" stroke-linecap="round" stroke-linejoin="round"/>
<path d="M372.575 526.009C378.737 530.628 390.289 539.097 392.984 539.482C395.679 539.867 423.789 505.606 430.336 494.057C436.882 482.508 442.658 458.256 440.347 452.866C438.037 447.477 433.416 452.096 428.795 455.946C424.174 459.796 381.817 487.898 377.966 489.823C376.95 490.331 376.026 490.746 375.209 491.101C374.1 493.21 372.745 496.475 373.669 498.677C375.209 502.141 381.755 506.761 381.755 506.761L370.096 524.222L372.575 526.009Z" fill="#263238" stroke="#263238" stroke-linecap="round" stroke-linejoin="round"/>
<path d="M430.336 494.057C436.882 482.508 442.658 458.256 440.347 452.866C439.007 449.787 436.897 449.987 434.448 451.496C436.065 458.687 434.448 472.561 426.485 487.513C419.384 500.848 397.451 524.469 386.438 535.894C388.444 537.403 390.66 538.612 393.015 539.482C395.679 539.867 423.789 505.606 430.336 494.057Z" fill="white"/>
<mask id="mask9_19_573" style="mask-type:luminance" maskUnits="userSpaceOnUse" x="386" y="450" width="55" height="90">
<path d="M430.336 494.057C436.882 482.508 442.658 458.256 440.347 452.866C439.007 449.787 436.897 449.987 434.448 451.496C436.065 458.687 434.448 472.561 426.485 487.513C419.384 500.848 397.451 524.469 386.438 535.894C388.444 537.403 390.66 538.612 393.015 539.482C395.679 539.867 423.789 505.606 430.336 494.057Z" fill="white"/>
</mask>
<g mask="url(#mask9_19_573)">
<path d="M393.369 539.374L393.708 539.205L393.8 539.128C393.987 539.022 394.162 538.898 394.324 538.758L394.509 538.604L394.956 538.235L395.202 538.004L395.803 537.45L396.172 537.095L396.681 536.603L397.112 536.172L397.543 535.74L398.637 534.586L398.822 534.401L399.499 533.662L399.777 533.369C400.578 532.491 401.44 531.537 402.333 530.52V530.443L403.288 529.365L396.557 525.039C392.738 529.196 389.18 532.953 386.345 535.894L387.377 536.572L387.531 536.664L388.486 537.265L390.027 538.143L390.458 538.389L390.889 538.62L391.382 538.866L391.706 539.02C391.86 539.097 392.02 539.164 392.183 539.22L392.414 539.313C392.592 539.387 392.778 539.438 392.969 539.467C393.065 539.492 393.165 539.492 393.261 539.467L393.369 539.374Z" fill="#016788"/>
<path opacity="0.5" d="M393.369 539.374L393.708 539.205L393.8 539.128C393.987 539.022 394.162 538.898 394.324 538.758L394.509 538.604L394.956 538.235L395.202 538.004L395.803 537.45L396.172 537.095L396.681 536.603L397.112 536.172L397.543 535.74L398.637 534.586L398.822 534.401L399.499 533.662L399.777 533.369C400.578 532.491 401.44 531.537 402.333 530.52V530.443L403.288 529.365L396.557 525.039C392.738 529.196 389.18 532.953 386.345 535.894L387.377 536.572L387.531 536.664L388.486 537.265L390.027 538.143L390.458 538.389L390.889 538.62L391.382 538.866L391.706 539.02C391.86 539.097 392.02 539.164 392.183 539.22L392.414 539.313C392.592 539.387 392.778 539.438 392.969 539.467C393.065 539.492 393.165 539.492 393.261 539.467L393.369 539.374Z" fill="white"/>
</g>
<path d="M430.336 494.057C436.882 482.508 442.658 458.256 440.347 452.866C439.007 449.787 436.897 449.987 434.448 451.496C436.065 458.687 434.448 472.561 426.485 487.513C419.384 500.848 397.451 524.469 386.438 535.894C388.444 537.403 390.66 538.612 393.015 539.482C395.679 539.867 423.789 505.606 430.336 494.057Z" stroke="#263238" stroke-linecap="round" stroke-linejoin="round"/>
<path d="M369.11 548.336C357.558 541.022 344.466 520.619 344.081 513.69C344.063 512.931 344.125 512.172 344.265 511.426C341.965 511.5 339.746 512.291 337.919 513.69C333.178 509.39 328.162 505.403 322.902 501.756C318.666 499.317 313.919 497.899 309.039 497.614C303.448 502.234 298.258 505.929 297.441 509.07C295.901 514.845 306.298 537.942 331.327 554.111C356.356 570.279 364.828 567.584 372.144 566.044C379.46 564.505 380.662 555.651 369.11 548.336Z" fill="#263238" stroke="#263238" stroke-linecap="round" stroke-linejoin="round"/>
<path d="M369.11 548.336C365.282 545.742 361.83 542.634 358.852 539.097C350.904 535.71 340.291 531.398 330.988 525.608C320.977 519.449 323.287 515.599 317.511 509.825C313.075 505.39 304.357 504.82 300.568 504.79C299.2 505.931 298.141 507.398 297.487 509.055C295.947 514.829 306.344 537.927 331.373 554.095C356.403 570.264 364.874 567.569 372.19 566.029C379.507 564.489 380.662 555.651 369.11 548.336Z" fill="white"/>
<mask id="mask10_19_573" style="mask-type:luminance" maskUnits="userSpaceOnUse" x="297" y="504" width="81" height="64">
<path d="M369.11 548.336C365.282 545.742 361.83 542.634 358.852 539.097C350.904 535.71 340.291 531.398 330.988 525.608C320.977 519.449 323.287 515.599 317.511 509.825C313.075 505.39 304.357 504.82 300.568 504.79C299.2 505.931 298.141 507.398 297.487 509.055C295.947 514.829 306.344 537.927 331.373 554.095C356.403 570.264 364.874 567.569 372.19 566.029C379.507 564.489 380.662 555.651 369.11 548.336Z" fill="white"/>
</mask>
<g mask="url(#mask10_19_573)">
<path d="M369.11 548.336C365.282 545.742 361.83 542.634 358.852 539.097C350.904 535.71 340.291 531.398 330.988 525.608C320.977 519.449 323.287 515.599 317.511 509.825C313.075 505.39 304.357 504.82 300.568 504.79C299.2 505.931 298.141 507.398 297.487 509.055C295.947 514.829 306.344 537.927 331.373 554.095C356.403 570.264 364.874 567.569 372.19 566.029C379.507 564.489 380.662 555.651 369.11 548.336Z" fill="#016788"/>
<path opacity="0.5" d="M369.11 548.336C365.282 545.742 361.83 542.634 358.852 539.097C350.904 535.71 340.291 531.398 330.988 525.608C320.977 519.449 323.287 515.599 317.511 509.825C313.075 505.39 304.357 504.82 300.568 504.79C299.2 505.931 298.141 507.398 297.487 509.055C295.947 514.829 306.344 537.927 331.373 554.095C356.403 570.264 364.874 567.569 372.19 566.029C379.507 564.489 380.662 555.651 369.11 548.336Z" fill="white"/>
</g>
<path d="M369.11 548.336C365.282 545.742 361.83 542.634 358.852 539.097C350.904 535.71 340.291 531.398 330.988 525.608C320.977 519.449 323.287 515.599 317.511 509.825C313.075 505.39 304.357 504.82 300.568 504.79C299.2 505.931 298.141 507.398 297.487 509.055C295.947 514.829 306.344 537.927 331.373 554.095C356.403 570.264 364.874 567.569 372.19 566.029C379.507 564.489 380.662 555.651 369.11 548.336Z" stroke="#263238" stroke-linecap="round" stroke-linejoin="round"/>
<path d="M371.035 551.031C361.023 545.257 340.615 541.407 327.523 532.553C314.43 523.699 317.896 516 308.269 509.84C306.731 508.691 304.888 508.019 302.971 507.91C301.054 507.8 299.147 508.258 297.487 509.224C296.147 515.23 306.575 538.066 331.373 554.111C356.172 570.156 364.874 567.584 372.19 566.044C377.058 565.013 379.168 560.763 376.657 555.882C375.086 553.944 373.182 552.301 371.035 551.031Z" fill="#263238"/>
<mask id="mask11_19_573" style="mask-type:luminance" maskUnits="userSpaceOnUse" x="297" y="507" width="81" height="61">
<path d="M371.035 551.031C361.023 545.257 340.615 541.407 327.523 532.553C314.43 523.699 317.896 516 308.269 509.84C306.731 508.691 304.888 508.019 302.971 507.91C301.054 507.8 299.147 508.258 297.487 509.224C296.147 515.23 306.575 538.066 331.373 554.111C356.172 570.156 364.874 567.584 372.19 566.044C377.058 565.013 379.168 560.763 376.657 555.882C375.086 553.944 373.182 552.301 371.035 551.031Z" fill="white"/>
</mask>
<g mask="url(#mask11_19_573)">
<path opacity="0.53" d="M371.035 551.031C361.023 545.257 340.615 541.407 327.523 532.553C314.43 523.699 317.896 516 308.269 509.84C306.731 508.691 304.888 508.019 302.971 507.91C301.054 507.8 299.147 508.258 297.487 509.224C296.147 515.23 306.575 538.066 331.373 554.111C356.172 570.156 364.874 567.584 372.19 566.044C377.058 565.013 379.168 560.763 376.657 555.882C375.086 553.944 373.182 552.301 371.035 551.031Z" fill="white"/>
</g>
<path d="M371.035 551.031C361.023 545.257 340.615 541.407 327.523 532.553C314.43 523.699 317.896 516 308.269 509.84C306.731 508.691 304.888 508.019 302.971 507.91C301.054 507.8 299.147 508.258 297.487 509.224C296.147 515.23 306.575 538.066 331.373 554.111C356.172 570.156 364.874 567.584 372.19 566.044C377.058 565.013 379.168 560.763 376.657 555.882C375.086 553.944 373.182 552.301 371.035 551.031Z" stroke="#263238" stroke-linecap="round" stroke-linejoin="round"/>
<path d="M179.149 477.396C179.149 477.396 186.542 468.419 187.589 475.286C188.637 482.154 187.066 494.812 181.782 499.554C176.499 504.297 173.865 496.921 173.865 496.921L177.038 492.702C177.038 492.702 179.672 497.984 181.782 489.53C183.893 481.076 177.562 482.139 177.562 482.139L179.149 477.396Z" fill="white" stroke="#263238" stroke-linecap="round" stroke-linejoin="round"/>
<path d="M173.496 511.18C169.121 514.414 154.859 514.414 150.5 511.18C141.258 504.328 142.798 471.221 142.798 471.221H181.089C181.089 471.221 182.753 504.328 173.496 511.18Z" fill="white" stroke="#263238" stroke-linecap="round" stroke-linejoin="round"/>
<path d="M146.988 464.723C146.988 460.566 150.854 460.566 150.854 456.393C150.854 452.22 146.988 452.22 146.988 448.062C146.988 443.905 150.854 443.889 150.854 439.716C150.854 435.543 146.988 435.543 146.988 431.37C146.988 427.197 150.854 427.197 150.854 423.024" stroke="#263238" stroke-linecap="round" stroke-linejoin="round"/>
<path d="M160.219 464.723C160.219 461.643 164.085 461.643 164.085 458.394C164.085 455.145 160.219 455.238 160.219 452.066C160.219 448.893 164.085 448.909 164.085 445.737C164.085 442.565 160.219 442.565 160.219 439.393C160.219 436.221 164.085 436.236 164.085 433.064" stroke="#263238" stroke-linecap="round" stroke-linejoin="round"/>
<path d="M174.774 464.723C174.774 460.566 178.625 460.566 178.625 456.393C178.625 452.22 174.774 452.22 174.774 448.062C174.774 443.905 178.625 443.889 178.625 439.716C178.625 435.543 174.774 435.543 174.774 431.37C174.774 427.197 178.625 427.197 178.625 423.024" stroke="#263238" stroke-linecap="round" stroke-linejoin="round"/>
<path d="M181.12 471.221C181.12 472.191 172.556 472.961 161.975 472.961C151.393 472.961 142.829 472.191 142.829 471.221C142.829 470.251 151.393 469.481 161.975 469.481C172.556 469.481 181.12 470.251 181.12 471.221Z" fill="white" stroke="#263238" stroke-linecap="round" stroke-linejoin="round"/>
<path d="M216.469 232.947C216.469 232.947 218.271 252.395 219.026 258.539C219.781 264.683 221.491 282.329 223.262 288.165C225.033 294.001 234.691 304.149 235.584 301.808C236.477 299.468 241.283 283.592 239.373 274.091C237.463 264.59 236.878 256.475 238.064 254.073C239.25 251.671 243.516 248.976 243.516 248.976C238.547 246.432 233.719 243.62 229.053 240.554C222.245 236.026 217.424 230.899 216.469 232.947Z" fill="white"/>
<mask id="mask12_19_573" style="mask-type:luminance" maskUnits="userSpaceOnUse" x="216" y="232" width="28" height="71">
<path d="M216.469 232.947C216.469 232.947 218.271 252.395 219.026 258.539C219.781 264.683 221.491 282.329 223.262 288.165C225.033 294.001 234.691 304.149 235.584 301.808C236.477 299.468 241.283 283.592 239.373 274.091C237.463 264.59 236.878 256.475 238.064 254.073C239.25 251.671 243.516 248.976 243.516 248.976C238.547 246.432 233.719 243.62 229.053 240.554C222.245 236.026 217.424 230.899 216.469 232.947Z" fill="white"/>
</mask>
<g mask="url(#mask12_19_573)">
<path d="M241.191 250.023L239.65 247.036C236.816 245.496 232.873 243.217 229.13 240.707C222.276 236.088 217.455 230.899 216.5 233.008C216.5 233.008 218.302 252.456 219.057 258.6C219.812 264.744 221.521 282.391 223.293 288.227C223.897 289.933 224.731 291.55 225.772 293.031C223.909 281.421 225.926 260.448 225.926 260.448L241.191 250.023Z" fill="#016788"/>
<path opacity="0.5" d="M241.191 250.023L239.65 247.036C236.816 245.496 232.873 243.217 229.13 240.707C222.276 236.088 217.455 230.899 216.5 233.008C216.5 233.008 218.302 252.456 219.057 258.6C219.812 264.744 221.521 282.391 223.293 288.227C223.897 289.933 224.731 291.55 225.772 293.031C223.909 281.421 225.926 260.448 225.926 260.448L241.191 250.023Z" fill="white"/>
</g>
<path d="M216.469 232.947C216.469 232.947 218.271 252.395 219.026 258.539C219.781 264.683 221.491 282.329 223.262 288.165C225.033 294.001 234.691 304.149 235.584 301.808C236.477 299.468 241.283 283.592 239.373 274.091C237.463 264.59 236.878 256.475 238.064 254.073C239.25 251.671 243.516 248.976 243.516 248.976C238.547 246.432 233.719 243.62 229.053 240.554C222.245 236.026 217.424 230.899 216.469 232.947Z" stroke="#263238" stroke-linecap="round" stroke-linejoin="round"/>
<path d="M215.761 235.765C215.761 235.765 226.851 245.004 235.353 248.391C243.855 251.779 256.917 251.563 258.78 247.144C260.644 242.725 255.546 207.724 251.156 198.516C246.766 189.308 242.084 189.154 234.336 188.445C226.589 187.737 211.094 194.05 208.368 201.534C205.641 209.018 208.753 219.612 211.001 225.894C212.191 229.361 213.788 232.675 215.761 235.765Z" fill="white"/>
<mask id="mask13_19_573" style="mask-type:luminance" maskUnits="userSpaceOnUse" x="207" y="188" width="53" height="63">
<path d="M215.761 235.765C215.761 235.765 226.851 245.004 235.353 248.391C243.855 251.779 256.917 251.563 258.78 247.144C260.644 242.725 255.546 207.724 251.156 198.516C246.766 189.308 242.084 189.154 234.336 188.445C226.589 187.737 211.094 194.05 208.367 201.534C205.641 209.018 208.753 219.612 211.001 225.894C212.19 229.361 213.788 232.675 215.761 235.765Z" fill="white"/>
</mask>
<g mask="url(#mask13_19_573)">
<path d="M235.677 235.349C231.749 223.708 230.763 205.384 230.763 200.502C230.763 196.73 240.59 192.588 245.072 190.894C242.13 189.077 238.711 188.846 234.29 188.445C226.589 187.752 211.048 194.05 208.321 201.534C205.595 209.018 208.707 219.612 210.955 225.894C212.144 229.361 213.742 232.675 215.715 235.765C215.715 235.765 226.805 245.004 235.307 248.391C241.199 250.62 247.581 251.232 253.79 250.162C247.706 247.868 238.295 243.125 235.677 235.349Z" fill="#016788"/>
<path opacity="0.5" d="M235.677 235.349C231.749 223.708 230.763 205.384 230.763 200.502C230.763 196.73 240.59 192.588 245.072 190.894C242.13 189.077 238.711 188.846 234.29 188.445C226.589 187.752 211.048 194.05 208.321 201.534C205.595 209.018 208.707 219.612 210.955 225.894C212.144 229.361 213.742 232.675 215.715 235.765C215.715 235.765 226.805 245.004 235.307 248.391C241.199 250.62 247.581 251.232 253.79 250.162C247.706 247.868 238.295 243.125 235.677 235.349Z" fill="white"/>
</g>
<path d="M215.761 235.765C215.761 235.765 226.851 245.004 235.353 248.391C243.855 251.779 256.917 251.563 258.78 247.144C260.644 242.725 255.546 207.724 251.156 198.516C246.766 189.308 242.084 189.154 234.336 188.445C226.589 187.737 211.094 194.05 208.368 201.534C205.641 209.018 208.753 219.612 211.001 225.894C212.191 229.361 213.788 232.675 215.761 235.765Z" stroke="#263238" stroke-linecap="round" stroke-linejoin="round"/>
<path d="M251.988 212.929C252.173 217.364 249.385 221.075 245.827 221.213C242.269 221.352 239.157 217.887 238.988 213.514C238.819 209.141 241.591 205.368 245.149 205.214C248.707 205.06 251.818 208.448 251.988 212.929Z" stroke="#263238" stroke-linecap="round" stroke-linejoin="round"/>
<path d="M260.706 211.204C260.891 215.639 259.458 219.288 257.517 219.365C255.577 219.442 253.852 215.916 253.682 211.481C253.513 207.047 254.945 203.382 256.886 203.305C258.827 203.228 260.536 206.769 260.706 211.204Z" stroke="#263238" stroke-linecap="round" stroke-linejoin="round"/>
<path d="M252.45 211.297C252.45 211.297 265.173 213.714 263.94 216.778C262.708 219.843 254.113 223.153 254.113 223.153" fill="white"/>
<path d="M252.45 211.297C252.45 211.297 265.173 213.714 263.94 216.778C262.708 219.843 254.113 223.153 254.113 223.153" stroke="#263238" stroke-linecap="round" stroke-linejoin="round"/>
<path d="M251.664 209.849C251.664 209.849 251.849 208.309 253.805 209.279" stroke="#263238" stroke-linecap="round" stroke-linejoin="round"/>
<path d="M238.572 214.114L215.437 223.215" stroke="#263238" stroke-linecap="round" stroke-linejoin="round"/>
<path d="M238.896 206.646C239.383 205.545 240.197 204.621 241.227 203.999C242.258 203.376 243.455 203.085 244.656 203.166" stroke="#263238" stroke-width="2" stroke-linecap="round" stroke-linejoin="round"/>
<path d="M254.298 203.259L250.74 204.614" stroke="#263238" stroke-width="2" stroke-linecap="round" stroke-linejoin="round"/>
<path d="M243.301 229.097C243.301 229.097 247.922 227.896 250.54 230.637" stroke="#263238" stroke-linecap="round" stroke-linejoin="round"/>
<path d="M246.274 213.73C246.489 215.269 246.273 216.594 245.642 216.671C245.01 216.748 244.456 215.562 244.24 214.007C244.025 212.451 244.317 211.158 244.887 211.081C245.457 211.004 246.073 212.19 246.274 213.73Z" fill="#263238"/>
<path d="M217.609 223.292C217.609 223.292 216.069 226.372 220.412 226.526C224.756 226.68 227.713 224.57 225.603 221.906C223.493 219.242 220.366 216.748 223.585 213.268C226.805 209.788 233.058 206.862 229.546 202.981C226.034 199.101 213.112 202.627 216.346 199.486C219.581 196.345 234.521 193.065 241.237 193.481C247.952 193.896 260.49 188.692 263.247 181.886C266.004 175.08 262.154 162.499 253.128 163.177C244.102 163.854 237.371 171.846 233.366 172.416C229.361 172.985 221.152 168.535 214.267 172.416C207.382 176.296 207.151 187.444 206.565 188.815C205.98 190.185 196.646 192.218 194.998 201.657C194.379 205.463 194.644 209.359 195.771 213.047C196.898 216.734 198.857 220.113 201.498 222.922C205.364 227.126 207.104 228.728 207.104 228.728L217.609 223.292Z" fill="#263238" stroke="#263238" stroke-linecap="round" stroke-linejoin="round"/>
<path d="M198.017 206.23C197.937 207.663 198.279 209.087 199.003 210.326" stroke="white" stroke-width="0.75" stroke-linecap="round" stroke-linejoin="round"/>
<path d="M237.278 181.855C237.278 181.855 233.921 174.51 242.484 174.51C251.048 174.51 252.281 185.289 243.409 189.2C234.537 193.111 215.237 194.097 204.825 198.701C202.781 199.5 200.963 200.784 199.526 202.442" stroke="white" stroke-width="0.75" stroke-linecap="round" stroke-linejoin="round"/>
<path d="M221.768 207.94C218.687 209.048 214.698 210.588 210.647 212.467C202.068 216.455 203.901 220.428 203.901 220.428" stroke="white" stroke-width="0.75" stroke-linecap="round" stroke-linejoin="round"/>
<path d="M227.482 206.046C227.482 206.046 226.727 206.261 225.449 206.677" stroke="white" stroke-width="0.75" stroke-linecap="round" stroke-linejoin="round"/>
<path d="M219.072 226.587C219.072 226.587 214.097 219.411 208.86 222.291C203.623 225.17 207.69 235.41 210.847 238.967C214.005 242.524 220.089 235.888 220.72 234.225" fill="white"/>
<mask id="mask14_19_573" style="mask-type:luminance" maskUnits="userSpaceOnUse" x="206" y="221" width="15" height="20">
<path d="M219.072 226.587C219.072 226.587 214.097 219.411 208.86 222.291C203.623 225.17 207.69 235.41 210.847 238.967C214.005 242.524 220.089 235.888 220.72 234.225" fill="white"/>
</mask>
<g mask="url(#mask14_19_573)">
<path d="M219.072 226.587C219.072 226.587 214.097 219.411 208.86 222.291C203.623 225.17 207.69 235.41 210.847 238.967C214.005 242.524 220.089 235.888 220.72 234.225" fill="#016788"/>
<path opacity="0.5" d="M219.072 226.587C219.072 226.587 214.097 219.411 208.86 222.291C203.623 225.17 207.69 235.41 210.847 238.967C214.005 242.524 220.089 235.888 220.72 234.225" fill="white"/>
</g>
<path d="M219.072 226.587C219.072 226.587 214.097 219.411 208.86 222.291C203.623 225.17 207.69 235.41 210.847 238.967C214.005 242.524 220.089 235.888 220.72 234.225" stroke="#263238" stroke-linecap="round" stroke-linejoin="round"/>
<path d="M156.245 220.027H45.8384C41.483 220.027 37.9522 223.557 37.9522 227.911V308.599C37.9522 312.953 41.483 316.483 45.8384 316.483H156.245C160.6 316.483 164.131 312.953 164.131 308.599V227.911C164.131 223.557 160.6 220.027 156.245 220.027Z" fill="white" stroke="#263238" stroke-linecap="round" stroke-linejoin="round"/>
<path d="M161.728 289.428L235.661 308.676L161.728 272.49" fill="white"/>
<path d="M161.728 289.428L235.661 308.676L161.728 272.49" stroke="#263238" stroke-linecap="round" stroke-linejoin="round"/>
<path d="M77.8298 229.313H48.1488V307.228H77.8298V229.313Z" fill="#016788" stroke="#263238" stroke-linecap="round" stroke-linejoin="round"/>
<path d="M157.569 229.313H153.857V307.228H157.569V229.313Z" fill="#016788" stroke="#263238" stroke-linecap="round" stroke-linejoin="round"/>
<path d="M157.569 264.929H153.857V271.581H157.569V264.929Z" fill="#263238" stroke="#263238" stroke-linecap="round" stroke-linejoin="round"/>
<path d="M87.1176 231.16H145.571" stroke="#263238" stroke-linecap="round" stroke-linejoin="round"/>
<path d="M87.1176 239.506H145.571" stroke="#263238" stroke-linecap="round" stroke-linejoin="round"/>
<path d="M87.1176 247.852H145.571" stroke="#263238" stroke-linecap="round" stroke-linejoin="round"/>
<path d="M87.1176 256.198H145.571" stroke="#263238" stroke-linecap="round" stroke-linejoin="round"/>
<path d="M87.1176 276.616H145.571" stroke="#263238" stroke-linecap="round" stroke-linejoin="round"/>
<path d="M87.1176 284.023H145.571" stroke="#263238" stroke-linecap="round" stroke-linejoin="round"/>
<path d="M87.1176 291.445H145.571" stroke="#263238" stroke-linecap="round" stroke-linejoin="round"/>
<path d="M87.1176 306.844H145.571" stroke="#263238" stroke-linecap="round" stroke-linejoin="round"/>
<path d="M48.1488 307.213L77.8452 229.313" stroke="#263238" stroke-linecap="round" stroke-linejoin="round"/>
<path d="M495.473 522.837C509.705 522.837 521.242 517.666 521.242 511.288C521.242 504.91 509.705 499.739 495.473 499.739C481.242 499.739 469.705 504.91 469.705 511.288C469.705 517.666 481.242 522.837 495.473 522.837Z" fill="#016788"/>
<path opacity="0.5" d="M495.473 522.837C509.705 522.837 521.242 517.666 521.242 511.288C521.242 504.91 509.705 499.739 495.473 499.739C481.242 499.739 469.705 504.91 469.705 511.288C469.705 517.666 481.242 522.837 495.473 522.837Z" fill="white"/>
<path d="M465.346 340.397C468.103 341.598 474.849 341.444 474.849 341.444C474.849 341.444 473.401 337.024 473.309 336.824C471.769 333.744 467.148 328.617 463.343 329.125C462.719 329.238 462.124 329.479 461.596 329.832C461.069 330.186 460.619 330.644 460.277 331.179C459.934 331.713 459.706 332.313 459.605 332.94C459.505 333.567 459.535 334.208 459.693 334.822C460.263 337.409 462.989 339.365 465.346 340.397Z" fill="#263238"/>
<path d="M553.696 317.438C549.876 317.037 545.332 322.257 543.93 325.399C543.807 325.676 542.39 330.126 542.482 330.126H542.559C541.836 330.942 541.019 331.835 540.264 332.821C538.724 334.653 537.091 336.732 535.428 339.134C533.603 341.691 531.931 344.355 530.422 347.11C528.711 350.19 527.278 353.416 526.14 356.75C526.131 356.79 526.131 356.832 526.14 356.873C526.14 355.749 526.14 352.592 526.14 352.346C525.694 348.958 522.844 342.629 519.055 341.936C518.426 341.851 517.786 341.895 517.175 342.067C516.565 342.239 515.996 342.536 515.504 342.937C515.013 343.339 514.61 343.837 514.32 344.402C514.029 344.966 513.859 345.584 513.818 346.217C513.602 348.912 515.559 351.622 517.469 353.331C519.625 355.256 525.601 357.119 526.079 357.258C525.013 360.68 524.169 364.167 523.553 367.698C523.183 369.761 522.89 371.84 522.598 373.934C522.598 372.949 522.598 372.086 522.598 371.963C522.151 368.56 519.301 362.247 515.528 361.554C514.899 361.466 514.259 361.508 513.647 361.678C513.035 361.848 512.465 362.143 511.972 362.543C511.48 362.943 511.075 363.441 510.783 364.005C510.491 364.568 510.318 365.186 510.275 365.819C510.06 368.529 512.016 371.224 513.926 372.933C515.836 374.643 520.934 376.367 522.29 376.798C522.197 377.599 522.089 378.338 521.981 379.201C521.519 383.05 521.088 386.9 520.534 390.672C520.333 391.997 520.102 393.29 519.871 394.584C519.871 393.721 519.871 393.044 519.871 392.89C519.425 389.487 516.575 383.173 512.786 382.465C512.157 382.379 511.517 382.424 510.907 382.596C510.296 382.768 509.727 383.064 509.236 383.466C508.744 383.867 508.341 384.366 508.051 384.93C507.761 385.495 507.59 386.113 507.549 386.746C507.334 389.456 509.29 392.151 511.2 393.86C513.11 395.569 517.715 397.124 519.317 397.632C519.04 398.957 518.747 400.281 518.423 401.559C518.177 402.421 517.992 403.268 517.7 404.115C517.407 404.962 517.16 405.809 516.883 406.64C516.313 408.18 515.728 409.874 515.127 411.399C514.711 412.476 514.296 413.493 513.895 414.478C514.095 413.154 514.45 410.567 514.45 410.351C514.412 407.333 513.601 404.375 512.093 401.759C512.116 401.426 512.116 401.092 512.093 400.758C512.002 400.13 511.782 399.528 511.448 398.989C511.114 398.45 510.672 397.985 510.151 397.624C509.629 397.263 509.039 397.013 508.416 396.89C507.794 396.767 507.152 396.773 506.533 396.909C502.821 397.894 500.464 404.408 500.279 407.826C500.279 408.042 500.402 410.244 500.51 411.63C500.325 410.829 500.156 410.09 499.956 409.212C499.555 407.564 499.124 405.932 498.662 404.192C498.4 403.345 498.154 402.498 497.892 401.651C497.63 400.804 497.291 399.927 496.998 399.049C496.259 397.047 495.458 395.045 494.518 393.044C495.966 392.705 501.049 391.411 503.098 389.841C505.146 388.27 507.287 385.729 507.257 383.019C507.272 382.385 507.153 381.754 506.908 381.168C506.664 380.582 506.299 380.054 505.837 379.619C505.375 379.183 504.827 378.849 504.227 378.639C503.628 378.429 502.991 378.348 502.358 378.4C498.523 378.816 495.212 384.898 494.518 388.255C494.518 388.47 494.257 390.934 494.149 392.289C493.61 391.088 493.071 389.902 492.485 388.701C490.776 385.267 488.943 381.849 487.125 378.415C486.555 377.368 486.016 376.321 485.477 375.259C485.985 375.151 492.069 373.719 494.349 371.979C496.382 370.439 498.539 367.867 498.523 365.157C498.524 364.525 498.396 363.9 498.146 363.319C497.895 362.739 497.529 362.216 497.068 361.783C496.607 361.35 496.063 361.016 495.468 360.802C494.873 360.588 494.241 360.498 493.61 360.538C489.79 360.953 486.478 367.036 485.785 370.393C485.785 370.639 485.415 374.196 485.369 375.105C484.168 372.779 482.997 370.485 481.919 368.129C480.465 364.989 479.215 361.759 478.176 358.459C478.407 358.459 484.769 356.919 487.11 355.164C489.143 353.624 491.299 351.052 491.284 348.342C491.285 347.71 491.157 347.085 490.906 346.504C490.656 345.924 490.289 345.401 489.829 344.968C489.368 344.535 488.824 344.201 488.229 343.987C487.634 343.772 487.001 343.683 486.37 343.723C482.551 344.138 479.239 350.221 478.546 353.578C478.546 353.855 478.145 357.674 478.13 358.367C478.13 358.166 477.991 357.982 477.93 357.781C476.979 354.438 476.329 351.016 475.989 347.557C475.773 345.663 475.681 343.815 475.619 342.029C476.836 341.89 482.35 341.151 484.645 339.765C486.94 338.379 489.266 336.147 489.543 333.437C489.618 332.806 489.562 332.168 489.379 331.56C489.196 330.953 488.89 330.389 488.479 329.905C488.069 329.421 487.563 329.027 486.994 328.747C486.424 328.467 485.803 328.308 485.169 328.278C481.318 328.278 477.36 333.96 476.297 337.209C476.297 337.394 475.866 339.257 475.604 340.628C475.604 339.811 475.604 338.98 475.604 338.21C475.604 335.315 475.789 332.651 475.974 330.295C476.097 328.956 476.22 327.755 476.359 326.615C477.468 325.861 481.904 322.719 483.275 320.456C484.645 318.192 485.708 315.112 484.707 312.603C484.495 312 484.159 311.449 483.719 310.986C483.28 310.523 482.747 310.158 482.157 309.915C481.566 309.672 480.931 309.557 480.293 309.577C479.655 309.597 479.028 309.752 478.453 310.031C475.034 311.786 474.141 318.654 474.695 322.042C474.695 322.334 476.035 326.815 476.097 326.784C475.958 327.862 475.804 329.033 475.666 330.295C475.435 332.651 475.188 335.315 475.127 338.241C475.018 341.379 475.09 344.52 475.342 347.649C475.619 351.159 476.207 354.637 477.098 358.043C477.089 358.084 477.089 358.126 477.098 358.166C476.497 357.227 474.711 354.625 474.557 354.44C472.308 351.838 466.455 348.157 462.912 349.651C462.34 349.925 461.831 350.314 461.416 350.794C461.001 351.273 460.689 351.833 460.499 352.438C460.31 353.043 460.247 353.681 460.315 354.312C460.383 354.942 460.581 355.552 460.894 356.103C462.204 358.49 465.33 359.66 467.872 360.03C470.721 360.445 476.744 358.705 477.221 358.567C478.216 362.005 479.436 365.374 480.872 368.653C481.703 370.577 482.597 372.487 483.521 374.381C482.966 373.58 482.474 372.841 482.397 372.841C480.148 370.254 474.279 366.558 470.752 368.052C470.178 368.326 469.667 368.716 469.25 369.196C468.834 369.677 468.521 370.238 468.331 370.846C468.142 371.453 468.08 372.092 468.149 372.725C468.219 373.357 468.418 373.968 468.734 374.519C470.044 376.891 473.17 378.076 475.696 378.446C478.222 378.816 483.398 377.43 484.799 377.045C485.154 377.768 485.508 378.492 485.878 379.216C487.618 382.696 489.374 386.145 490.991 389.579C491.561 390.796 492.069 392.012 492.532 393.228C492.054 392.505 491.638 391.92 491.561 391.827C489.312 389.24 483.444 385.545 479.917 387.038C479.343 387.312 478.831 387.702 478.415 388.182C477.998 388.663 477.685 389.225 477.496 389.832C477.307 390.439 477.245 391.079 477.314 391.711C477.383 392.343 477.583 392.954 477.899 393.506C479.208 395.877 482.335 397.047 484.861 397.417C487.387 397.786 492.1 396.539 493.718 396.093C494.21 397.355 494.719 398.618 495.135 399.865C495.412 400.712 495.735 401.513 495.951 402.391C496.167 403.268 496.428 404.1 496.675 404.947C497.06 406.594 497.476 408.288 497.83 409.89C498.077 411.014 498.292 412.076 498.508 413.154C497.953 411.937 496.814 409.597 496.706 409.412C494.873 406.502 489.636 401.959 485.924 402.914C485.308 403.086 484.735 403.386 484.243 403.795C483.751 404.204 483.352 404.713 483.071 405.288C482.79 405.862 482.634 406.49 482.613 407.129C482.593 407.768 482.708 408.405 482.951 408.996C483.875 411.537 486.786 413.169 489.235 413.924C491.946 414.74 497.922 413.924 498.662 413.924C499.016 415.71 499.355 417.45 499.632 419.098C500.649 424.795 501.265 429.584 501.65 432.956C501.65 433.557 501.773 434.08 501.835 434.589H490.267L493.979 507.115C494.118 509.77 495.27 512.271 497.199 514.102C499.127 515.933 501.686 516.954 504.345 516.954C507.004 516.954 509.56 515.932 511.486 514.101C513.413 512.27 514.562 509.769 514.696 507.115L518.423 434.589H507.642C507.719 434.419 507.796 434.265 507.888 434.096C509.428 431.016 511.415 426.581 513.633 421.176C514.326 419.467 515.05 417.619 515.759 415.726C516.483 415.879 522.397 417.081 525.154 416.449C527.665 415.895 530.684 414.478 531.808 412.014C532.082 411.44 532.234 410.815 532.255 410.178C532.276 409.542 532.165 408.909 531.929 408.317C531.694 407.726 531.338 407.189 530.885 406.742C530.432 406.294 529.892 405.945 529.298 405.717C525.647 404.5 520.056 408.642 518.054 411.399C517.931 411.553 516.837 413.477 516.159 414.694C516.437 413.908 516.729 413.154 517.022 412.353C517.607 410.813 518.131 409.181 518.716 407.457C518.963 406.625 519.224 405.778 519.471 404.916C519.717 404.053 519.933 403.145 520.164 402.252C520.657 400.173 521.057 398.048 521.412 395.892C522.798 396.401 527.757 398.125 530.33 397.94C532.902 397.756 536.09 396.816 537.569 394.553C537.924 394.026 538.166 393.431 538.281 392.807C538.395 392.182 538.38 391.54 538.235 390.922C538.091 390.303 537.82 389.721 537.441 389.212C537.061 388.703 536.58 388.277 536.029 387.962C532.609 386.191 526.494 389.502 524.061 391.858C523.907 392.012 522.351 393.952 521.519 395.03C521.735 393.721 521.935 392.428 522.105 391.119C522.582 387.3 522.936 383.42 523.306 379.57L523.676 376.044C524.169 376.229 530.022 378.4 532.917 378.2C535.474 378.015 538.678 377.076 540.157 374.812C540.511 374.285 540.754 373.691 540.868 373.066C540.983 372.441 540.968 371.8 540.823 371.181C540.679 370.563 540.408 369.981 540.028 369.471C539.649 368.962 539.168 368.537 538.616 368.221C535.197 366.451 529.067 369.761 526.648 372.117C526.464 372.302 524.23 375.089 523.707 375.828C523.968 373.226 524.276 370.639 524.677 368.129C525.194 364.703 525.929 361.314 526.88 357.982C527.111 358.074 533.21 360.368 536.121 360.153C538.678 359.983 541.882 359.044 543.36 356.765C543.715 356.238 543.957 355.644 544.072 355.019C544.187 354.394 544.171 353.753 544.027 353.134C543.882 352.516 543.612 351.934 543.232 351.424C542.852 350.915 542.372 350.49 541.82 350.175C538.401 348.419 532.286 351.714 529.852 354.086C529.667 354.271 527.265 357.273 526.88 357.843C526.88 357.658 526.972 357.443 527.034 357.258C528.084 353.941 529.429 350.726 531.054 347.649C531.916 345.94 532.856 344.354 533.795 342.845C534.889 343.384 539.956 345.817 542.575 345.925C545.193 346.032 548.412 345.447 550.138 343.353C550.551 342.87 550.86 342.306 551.045 341.697C551.23 341.089 551.288 340.449 551.214 339.817C551.14 339.185 550.937 338.576 550.616 338.026C550.296 337.477 549.866 336.999 549.352 336.624C546.148 334.499 539.71 337.055 537.03 339.196C536.891 339.319 535.49 340.735 534.565 341.659L535.859 339.611C537.477 337.194 539.094 335.084 540.48 333.221C541.312 332.158 542.097 331.235 542.821 330.357C544.177 330.357 549.614 330.172 551.986 329.063C554.358 327.955 556.961 325.984 557.515 323.289C557.698 322.652 557.742 321.983 557.643 321.327C557.544 320.672 557.306 320.045 556.943 319.49C556.581 318.935 556.104 318.465 555.543 318.111C554.983 317.756 554.353 317.527 553.696 317.438ZM511.384 420.052C509.074 425.365 506.948 429.707 505.424 432.71L504.592 434.357H504.33C504.253 433.772 504.176 433.126 504.068 432.402C503.606 429.014 502.882 424.195 501.742 418.543C501.373 416.726 500.957 414.786 500.51 412.815C502.309 412.089 504.067 411.266 505.778 410.351C508.1 412.348 510.693 414.007 513.479 415.279C512.74 416.896 512.062 418.528 511.384 420.052Z" fill="#263238"/>
<path d="M533.564 341.875C533.564 341.875 534.781 337.394 534.827 337.101C535.305 333.698 534.211 326.861 530.761 325.183C530.179 324.937 529.552 324.814 528.92 324.82C528.288 324.826 527.664 324.962 527.086 325.219C526.509 325.476 525.99 325.848 525.563 326.314C525.135 326.779 524.807 327.327 524.6 327.924C523.676 330.48 524.846 333.606 526.248 335.762C527.85 338.287 533.549 341.875 533.564 341.875Z" fill="#263238"/>
</g>
<defs>
<clipPath id="clip0_19_573">
<rect width="564" height="568" fill="white"/>
</clipPath>
</defs>
</svg>
