<svg width="505" height="422" viewBox="0 0 505 422" fill="none" xmlns="http://www.w3.org/2000/svg">
<g clip-path="url(#clip0)">
<g opacity="0.41">
<g opacity="0.41">
<path opacity="0.41" d="M504.746 269.323C505.222 261.076 505.016 252.797 504.08 244.582C499.719 206.028 479.943 169.679 450.825 144.034C440.438 134.883 428.623 126.684 421.867 114.615C410.48 94.2676 411.352 70.9069 397.222 50.8132C383.076 30.7036 362.475 15.0346 339.241 6.97807C269.953 -17.0329 172.943 22.0603 181.681 105.544C181.713 105.845 181.745 106.273 181.777 106.828C182.934 124.162 169.327 138.753 152.009 139.165C88.0812 140.688 33.0503 189.978 21.267 252.417C13.7022 292.572 26.0882 336.582 55.4591 364.986C77.3763 386.19 106.795 397.83 136.229 405.839C195.241 421.889 257.345 425.251 318.18 419.114C375.13 413.372 435.22 396.99 472.045 353.171C491.71 329.81 502.97 299.836 504.746 269.323Z" fill="white"/>
</g>
</g>
<g opacity="0.88">
<g opacity="0.88">
<path opacity="0.88" d="M452.173 273.256C452.554 266.801 452.38 260.299 451.65 253.876C448.225 223.679 432.73 195.196 409.941 175.118C401.805 167.95 392.543 161.527 387.262 152.075C378.35 136.136 379.016 117.835 367.962 102.102C356.876 86.3539 340.748 74.0629 322.542 67.7668C268.256 48.9576 192.259 79.5819 199.11 144.986C199.142 145.224 199.158 145.557 199.19 146.001C200.094 159.592 189.436 171.011 175.861 171.328C125.778 172.517 82.6733 211.135 73.4433 260.045C67.512 291.494 77.2178 325.972 100.229 348.238C117.405 364.843 140.448 373.978 163.507 380.242C209.736 392.819 258.376 395.452 306.048 390.646C350.66 386.142 397.729 373.312 426.577 338.992C441.96 320.643 450.778 297.156 452.173 273.256Z" fill="#C09759"/>
</g>
</g>
<path opacity="0.31" d="M490.597 65.8909C492.59 57.4879 487.393 49.0607 478.99 47.0684C470.587 45.076 462.16 50.2728 460.168 58.6759C458.175 67.0789 463.372 75.5061 471.775 77.4985C480.178 79.4909 488.605 74.294 490.597 65.8909Z" fill="#C5D9FF"/>
<path opacity="0.31" d="M144.806 56.9567C151.885 49.8777 151.885 38.4003 144.806 31.3213C137.727 24.2423 126.25 24.2423 119.171 31.3213C112.092 38.4003 112.092 49.8777 119.171 56.9567C126.25 64.0358 137.727 64.0358 144.806 56.9567Z" fill="#C5D9FF"/>
<path opacity="0.31" d="M23.408 415.815C36.3358 415.815 46.8159 405.335 46.8159 392.407C46.8159 379.478 36.3358 368.998 23.408 368.998C10.4801 368.998 0 379.478 0 392.407C0 405.335 10.4801 415.815 23.408 415.815Z" fill="#C5D9FF"/>
<path d="M208.182 207.646C254.016 207.646 291.172 170.489 291.172 124.654C291.172 78.819 254.016 41.6624 208.182 41.6624C162.348 41.6624 125.191 78.819 125.191 124.654C125.191 170.489 162.348 207.646 208.182 207.646Z" fill="#EBC170"/>
<path d="M265.798 184.428C265.592 184.428 265.385 184.348 265.243 184.19C264.926 183.873 264.926 183.381 265.243 183.064C280.769 167.538 289.317 146.889 289.317 124.94C289.317 102.99 280.769 82.3414 265.243 66.8152C249.717 51.2889 229.068 42.7408 207.119 42.7408C185.17 42.7408 164.522 51.2889 148.996 66.8152C148.679 67.1324 148.187 67.1324 147.87 66.8152C147.553 66.498 147.553 66.0064 147.87 65.6892C163.697 49.8616 184.742 41.1548 207.119 41.1548C229.496 41.1548 250.541 49.8775 266.369 65.6892C282.196 81.5168 290.903 102.562 290.903 124.94C290.903 147.317 282.18 168.362 266.369 184.19C266.21 184.348 266.004 184.428 265.798 184.428Z" fill="#243762"/>
<path d="M208.182 187.806C243.059 187.806 271.333 159.532 271.333 124.654C271.333 89.7763 243.059 61.5023 208.182 61.5023C173.305 61.5023 145.031 89.7763 145.031 124.654C145.031 159.532 173.305 187.806 208.182 187.806Z" fill="white"/>
<path d="M208.182 188.599C172.927 188.599 144.238 159.909 144.238 124.654C144.238 89.3988 172.927 60.7094 208.182 60.7094C208.626 60.7094 208.975 61.0583 208.975 61.5023C208.975 61.9464 208.626 62.2953 208.182 62.2953C173.799 62.2953 145.824 90.2711 145.824 124.654C145.824 159.037 173.799 187.013 208.182 187.013C208.626 187.013 208.975 187.362 208.975 187.806C208.975 188.25 208.61 188.599 208.182 188.599Z" fill="#243762"/>
<path d="M224.533 136.723H207.357C203.836 136.723 200.966 133.852 200.966 130.332V106.511C200.966 103.45 203.456 100.96 206.517 100.96C209.577 100.96 212.067 103.45 212.067 106.511V125.621H224.533C227.593 125.621 230.083 128.111 230.083 131.172C230.083 134.233 227.609 136.723 224.533 136.723Z" fill="#243762"/>
<path d="M79.327 153.486L168.725 242.885C186.217 260.378 214.573 260.378 232.05 242.885L242.739 232.196C246.767 228.168 246.767 221.618 242.739 217.574L206.263 181.097C202.235 177.069 195.685 177.069 191.641 181.097L173.403 199.335C171.976 200.763 169.66 200.763 168.233 199.335L123.986 155.088C122.575 153.677 122.575 151.393 123.986 149.981L141.97 131.997C145.998 127.969 145.998 121.419 141.97 117.375L104.527 79.9308C100.546 75.9502 94.0918 75.8867 90.0477 79.804L79.8979 89.605C61.882 107.003 61.6283 135.787 79.327 153.486Z" fill="#0E213B"/>
<path d="M82.134 91.413L132.376 141.655L134.104 139.927L142.018 132.013C146.046 127.984 146.046 121.435 142.018 117.39L104.527 79.9308C100.546 75.9502 94.0918 75.8867 90.0477 79.804L79.8979 89.605L82.134 91.413Z" fill="#ECF1F7"/>
<path d="M132.36 142.765L81.5948 91.9997L78.6926 89.6684L89.4926 79.233C93.8222 75.0462 100.832 75.1096 105.082 79.3757L142.557 116.851C146.902 121.197 146.902 128.254 142.557 132.584L132.36 142.765ZM81.0873 89.5574L82.6891 90.8579L132.36 140.529L141.431 131.458C143.239 129.65 144.222 127.255 144.222 124.717C144.222 122.164 143.223 119.769 141.431 117.977L103.956 80.4859C100.293 76.8224 94.2979 76.7748 90.5869 80.3749L81.0873 89.5574Z" fill="#243762"/>
<path d="M184.314 191.882L234.555 242.124L236.284 240.395L244.198 232.481C248.226 228.453 248.226 221.903 244.198 217.859L206.723 180.384C202.742 176.403 196.288 176.339 192.243 180.257L182.094 190.058L184.314 191.882Z" fill="#ECF1F7"/>
<path d="M234.555 243.234L183.791 192.468L180.888 190.137L191.688 179.702C196.034 175.515 203.028 175.578 207.278 179.844L244.753 217.32C246.862 219.429 248.004 222.22 248.004 225.186C248.004 228.152 246.846 230.959 244.753 233.052L234.555 243.234ZM183.267 190.026L184.869 191.327L234.54 240.998L243.611 231.926C245.419 230.118 246.402 227.724 246.402 225.186C246.402 222.633 245.403 220.238 243.611 218.446L206.136 180.97C202.473 177.323 196.478 177.259 192.767 180.859L183.267 190.026Z" fill="#243762"/>
<path d="M116.58 116.883C116.374 116.883 116.168 116.804 116.025 116.645L85.4169 86.0367C85.0997 85.7195 85.0997 85.2278 85.4169 84.9106C85.7341 84.5935 86.2257 84.5935 86.5429 84.9106L117.151 115.519C117.468 115.836 117.468 116.328 117.151 116.645C116.992 116.804 116.786 116.883 116.58 116.883Z" fill="#243762"/>
<path d="M238.33 238.635C238.124 238.635 237.918 238.556 237.775 238.397L207.167 207.789C206.85 207.471 206.85 206.98 207.167 206.662C207.484 206.345 207.976 206.345 208.293 206.662L238.901 237.271C239.218 237.588 239.218 238.08 238.901 238.397C238.742 238.571 238.536 238.635 238.33 238.635Z" fill="#243762"/>
<path d="M372.656 395.118L255.458 377.784C242.2 375.818 233.049 363.495 235.015 350.237L277.042 66.0698C279.008 52.8114 291.331 43.6606 304.589 45.6272L421.788 62.9614C435.046 64.9279 444.196 77.2506 442.23 90.509L400.203 374.676C398.237 387.918 385.898 397.069 372.656 395.118Z" fill="#142B50"/>
<path d="M286.189 72.1618L246.502 340.505L392.006 362.025L431.693 93.6818L286.189 72.1618Z" fill="#ECF1F7"/>
<path d="M286.189 72.1562L283.21 92.2996L428.714 113.82L431.693 93.6762L286.189 72.1562Z" fill="#EBC170"/>
<path d="M316.801 377.419C316.341 377.419 315.881 377.388 315.405 377.308C312.899 376.944 310.679 375.612 309.172 373.582C307.666 371.536 307.031 369.046 307.396 366.524C307.761 364.018 309.093 361.798 311.123 360.291C313.153 358.785 315.675 358.15 318.164 358.531C320.67 358.896 322.89 360.228 324.397 362.258C325.904 364.288 326.538 366.794 326.173 369.315C325.491 374.026 321.431 377.419 316.801 377.419ZM316.785 360.006C315.104 360.006 313.47 360.545 312.09 361.56C310.393 362.813 309.283 364.669 308.982 366.762C308.665 368.855 309.188 370.933 310.457 372.63C311.71 374.327 313.565 375.437 315.659 375.738C319.972 376.373 324.001 373.391 324.635 369.062C324.936 366.968 324.413 364.891 323.16 363.194C321.907 361.497 320.052 360.387 317.958 360.085C317.562 360.038 317.165 360.006 316.785 360.006Z" fill="#ECF1F7"/>
<path d="M337.83 69.5906C337.687 69.5906 337.528 69.5747 337.386 69.5588C336.577 69.432 335.863 69.0196 335.387 68.3535C334.896 67.7033 334.705 66.8945 334.816 66.0856C334.927 65.2768 335.356 64.5632 336.022 64.0874C336.672 63.5957 337.481 63.3896 338.29 63.5164C339.098 63.6275 339.812 64.0557 340.288 64.7218C340.779 65.372 340.97 66.1808 340.859 66.9896C340.621 68.4963 339.32 69.5906 337.83 69.5906ZM337.83 65.0548C337.512 65.0548 337.211 65.15 336.957 65.3403C336.64 65.5782 336.434 65.9112 336.386 66.3077C336.323 66.6883 336.418 67.0848 336.656 67.402C336.894 67.7192 337.227 67.9253 337.623 67.9729C338.02 68.0363 338.401 67.9253 338.718 67.7033C339.035 67.4654 339.241 67.1324 339.289 66.7359C339.352 66.3394 339.241 65.9588 339.019 65.6416C338.781 65.3244 338.448 65.1182 338.052 65.0707C337.972 65.0707 337.893 65.0548 337.83 65.0548Z" fill="#ECF1F7"/>
<path d="M385.09 76.5686C384.931 76.5686 384.788 76.5528 384.63 76.5369L347.504 71.0496C346.695 70.9227 345.981 70.5104 345.505 69.8443C345.014 69.1941 344.824 68.3853 344.935 67.5764C345.061 66.7676 345.474 66.0539 346.14 65.5782C346.79 65.0865 347.599 64.8962 348.408 65.0072L385.534 70.4945C386.343 70.6214 387.056 71.0338 387.532 71.6999C388.024 72.3501 388.214 73.1589 388.103 73.9677C387.976 74.7766 387.564 75.4902 386.898 75.966C386.374 76.3625 385.74 76.5686 385.09 76.5686ZM347.964 66.5614C347.25 66.5614 346.616 67.0848 346.505 67.8143C346.441 68.1949 346.536 68.5914 346.774 68.9086C347.012 69.2258 347.345 69.432 347.742 69.4796L384.868 74.9669C385.661 75.0937 386.422 74.5387 386.533 73.7298C386.596 73.3492 386.501 72.9527 386.263 72.6355C386.025 72.3184 385.692 72.1122 385.296 72.0646L348.17 66.5773C348.106 66.5614 348.027 66.5614 347.964 66.5614Z" fill="#ECF1F7"/>
<path d="M392.607 279.917L291.109 264.898C289.46 264.66 287.921 265.802 287.667 267.451L283.766 293.778C283.528 295.427 284.67 296.965 286.319 297.219L373.1 310.049L382.045 322.388L383.631 311.619L387.817 312.238C389.467 312.476 391.005 311.334 391.259 309.684L395.16 283.358C395.414 281.693 394.272 280.154 392.607 279.917Z" fill="#C5D9FF"/>
<path d="M373.116 310.842C373.084 310.842 373.037 310.842 373.005 310.826L286.224 297.996C285.209 297.853 284.321 297.314 283.719 296.49C283.116 295.665 282.862 294.666 283.005 293.651L286.906 267.324C287.208 265.247 289.158 263.772 291.236 264.105L314.691 267.578C315.119 267.641 315.421 268.038 315.357 268.482C315.294 268.91 314.882 269.212 314.453 269.148L290.998 265.675C289.777 265.5 288.651 266.341 288.46 267.562L284.559 293.889C284.48 294.475 284.623 295.062 284.971 295.538C285.32 296.014 285.844 296.331 286.43 296.41L373.211 309.24C373.639 309.304 373.941 309.7 373.877 310.144C373.83 310.557 373.497 310.842 373.116 310.842Z" fill="#142B50"/>
<path d="M408.751 170.805L307.253 155.786C305.604 155.548 304.066 156.69 303.812 158.339L299.911 184.666C299.673 186.315 300.815 187.853 302.464 188.107L389.245 200.937L398.189 213.276L399.775 202.507L403.962 203.126C405.611 203.364 407.15 202.222 407.403 200.572L411.305 174.246C411.543 172.581 410.401 171.042 408.751 170.805Z" fill="#C5D9FF"/>
<path d="M398.697 215.306L388.817 201.667L302.369 188.884C300.291 188.583 298.848 186.632 299.149 184.555C299.213 184.126 299.609 183.841 300.053 183.889C300.482 183.952 300.783 184.348 300.719 184.792C300.624 185.379 300.783 185.966 301.132 186.442C301.481 186.918 302.004 187.235 302.591 187.314L389.705 200.192L397.698 211.214L399.125 201.587L404.105 202.317C404.691 202.396 405.278 202.254 405.754 201.905C406.23 201.556 406.547 201.032 406.626 200.446L409.211 182.921C409.275 182.493 409.671 182.192 410.115 182.255C410.543 182.318 410.845 182.715 410.781 183.159L408.196 200.684C408.054 201.699 407.514 202.587 406.69 203.189C405.865 203.792 404.866 204.046 403.851 203.903L400.441 203.395L398.697 215.306Z" fill="#142B50"/>
<path d="M280.277 204.728L381.775 219.746C383.424 219.984 384.566 221.523 384.328 223.188L380.427 249.514C380.189 251.164 378.651 252.306 376.986 252.068L290.221 239.222L278.089 248.436L279.675 237.667L275.488 237.049C273.838 236.811 272.697 235.273 272.934 233.607L276.836 207.281C277.089 205.632 278.628 204.49 280.277 204.728Z" fill="#EBC170"/>
<path d="M377.446 252.892C377.255 252.892 377.065 252.876 376.875 252.845L322.7 244.836C322.272 244.772 321.971 244.376 322.034 243.932C322.098 243.504 322.494 243.202 322.938 243.266L377.113 251.275C377.699 251.354 378.286 251.211 378.762 250.862C379.238 250.513 379.555 249.99 379.634 249.403L383.535 223.077C383.71 221.856 382.869 220.73 381.648 220.539C381.22 220.476 380.919 220.079 380.982 219.635C381.046 219.207 381.442 218.906 381.886 218.969C383.964 219.271 385.407 221.221 385.106 223.299L381.204 249.625C381.061 250.64 380.522 251.528 379.698 252.131C379.047 252.623 378.254 252.892 377.446 252.892Z" fill="#142B50"/>
<path d="M250.148 315.819L246.496 340.512L392 362.031L395.652 337.339L250.148 315.819Z" fill="white"/>
<path d="M271.634 331.38C270.92 336.217 266.416 339.547 261.579 338.834C256.742 338.12 253.412 333.616 254.126 328.779C254.839 323.942 259.343 320.611 264.18 321.325C269.017 322.039 272.348 326.543 271.634 331.38Z" fill="#EBC170"/>
<path opacity="0.33" d="M378.952 355.359C378.572 355.359 378.175 355.327 377.795 355.28L283.497 341.34C281.419 341.038 279.563 339.928 278.311 338.231C277.058 336.534 276.534 334.457 276.836 332.379C277.47 328.081 281.498 325.084 285.796 325.734L380.094 339.674C384.392 340.309 387.389 344.321 386.739 348.635C386.168 352.536 382.79 355.359 378.952 355.359ZM378.017 353.71C381.458 354.217 384.661 351.838 385.185 348.397C385.439 346.732 385.01 345.067 384.011 343.718C383.012 342.37 381.537 341.482 379.872 341.244L285.574 327.288C282.133 326.781 278.929 329.16 278.422 332.601C278.168 334.266 278.596 335.932 279.595 337.28C280.594 338.628 282.069 339.516 283.734 339.754L378.017 353.71Z" fill="#EBC170"/>
<path d="M295.248 86.6235C295.105 86.6235 294.947 86.6076 294.788 86.5917C293.091 86.338 291.918 84.7679 292.171 83.071C292.298 82.2463 292.727 81.5326 293.393 81.0251C294.059 80.5335 294.883 80.3273 295.692 80.4542C297.389 80.7079 298.563 82.278 298.309 83.975C298.087 85.5133 296.771 86.6235 295.248 86.6235ZM295.248 81.9925C294.931 81.9925 294.614 82.0877 294.344 82.2939C294.011 82.5318 293.805 82.8965 293.742 83.293C293.678 83.6895 293.789 84.1018 294.027 84.419C294.265 84.7521 294.63 84.9582 295.026 85.0217C295.851 85.1485 296.628 84.5776 296.755 83.7371C296.818 83.3406 296.707 82.9282 296.469 82.6111C296.231 82.278 295.867 82.0718 295.47 82.0084C295.391 82.0084 295.327 81.9925 295.248 81.9925Z" fill="white"/>
<path d="M303.844 87.8922C303.685 87.8922 303.542 87.8763 303.384 87.8605C301.687 87.6067 300.513 86.0367 300.767 84.3397C301.021 82.6428 302.607 81.485 304.288 81.7229C305.112 81.8498 305.826 82.278 306.334 82.9441C306.825 83.6102 307.031 84.4349 306.905 85.2437C306.778 86.0684 306.349 86.782 305.683 87.2895C305.144 87.686 304.494 87.8922 303.844 87.8922ZM303.828 83.2613C303.082 83.2613 302.432 83.8005 302.321 84.5617C302.258 84.9582 302.369 85.3706 302.607 85.6877C302.845 86.0208 303.209 86.227 303.606 86.2904C304.002 86.3538 304.415 86.2428 304.732 86.0049C305.065 85.767 305.271 85.4023 305.334 85.0058C305.398 84.6093 305.287 84.197 305.049 83.8798C304.811 83.5467 304.446 83.3406 304.05 83.2771C303.986 83.2771 303.907 83.2613 303.828 83.2613Z" fill="white"/>
<path d="M312.249 89.1292C312.106 89.1292 311.948 89.1134 311.789 89.0975C310.092 88.8438 308.919 87.2578 309.172 85.5768C309.426 83.8798 311.012 82.7062 312.693 82.96C314.39 83.2137 315.564 84.7996 315.31 86.4807C315.104 88.0191 313.771 89.1292 312.249 89.1292ZM312.249 84.5142C311.932 84.5142 311.615 84.6252 311.345 84.8155C311.012 85.0534 310.806 85.4182 310.742 85.8146C310.679 86.2111 310.79 86.6235 311.028 86.9407C311.266 87.2737 311.631 87.4799 312.027 87.5433C312.852 87.6543 313.629 87.0834 313.756 86.2587C313.882 85.434 313.296 84.6569 312.471 84.53C312.408 84.5142 312.328 84.5142 312.249 84.5142Z" fill="white"/>
<path d="M430.7 114.885C430.669 114.885 430.621 114.885 430.589 114.869L295.898 94.9496C295.47 94.8861 295.169 94.4896 295.232 94.0456C295.296 93.6174 295.692 93.3161 296.136 93.3795L430.827 113.299C431.255 113.362 431.557 113.759 431.493 114.203C431.43 114.599 431.081 114.885 430.7 114.885Z" fill="#142B50"/>
<path d="M374.543 285.975C374.512 285.975 374.464 285.975 374.432 285.959L302.575 275.333C302.147 275.27 301.845 274.873 301.909 274.429C301.972 274.001 302.369 273.684 302.813 273.763L374.67 284.389C375.098 284.452 375.4 284.849 375.336 285.293C375.273 285.689 374.94 285.975 374.543 285.975Z" fill="white"/>
<path d="M332.009 288.449C331.978 288.449 331.93 288.449 331.898 288.433L301.306 283.913C300.878 283.85 300.577 283.453 300.64 283.009C300.704 282.581 301.1 282.28 301.544 282.343L332.136 286.863C332.564 286.926 332.866 287.323 332.802 287.767C332.723 288.163 332.39 288.449 332.009 288.449Z" fill="white"/>
<path d="M321.701 295.126C321.669 295.126 321.622 295.126 321.59 295.11L300.117 291.938C299.689 291.874 299.387 291.478 299.451 291.034C299.514 290.606 299.927 290.304 300.355 290.368L321.828 293.54C322.256 293.603 322.557 294 322.494 294.444C322.431 294.84 322.082 295.126 321.701 295.126Z" fill="white"/>
<path d="M373.275 294.555C373.243 294.555 373.195 294.555 373.164 294.539L341.557 289.86C341.128 289.797 340.827 289.4 340.89 288.956C340.954 288.528 341.35 288.227 341.794 288.29L373.402 292.969C373.83 293.032 374.131 293.429 374.068 293.873C374.004 294.269 373.671 294.555 373.275 294.555Z" fill="white"/>
<path d="M365.773 226.344C365.742 226.344 365.694 226.344 365.662 226.328L293.805 215.702C293.377 215.639 293.075 215.242 293.139 214.798C293.202 214.37 293.599 214.053 294.043 214.132L365.9 224.758C366.328 224.821 366.63 225.218 366.566 225.662C366.503 226.058 366.154 226.344 365.773 226.344Z" fill="white"/>
<path d="M323.223 228.818C323.192 228.818 323.144 228.818 323.112 228.802L292.52 224.282C292.092 224.219 291.791 223.822 291.854 223.378C291.918 222.95 292.314 222.649 292.758 222.712L323.35 227.232C323.779 227.295 324.08 227.692 324.016 228.136C323.953 228.532 323.62 228.818 323.223 228.818Z" fill="white"/>
<path d="M355.005 241.712C354.957 241.712 354.926 241.711 354.878 241.696L292.853 232.069C292.425 232.006 292.124 231.593 292.187 231.165C292.251 230.737 292.663 230.436 293.091 230.499L355.116 240.126C355.544 240.189 355.846 240.601 355.782 241.03C355.735 241.426 355.401 241.712 355.005 241.712Z" fill="white"/>
<path d="M364.505 234.924C364.473 234.924 364.425 234.924 364.394 234.908L332.786 230.229C332.358 230.166 332.057 229.769 332.12 229.325C332.184 228.897 332.58 228.596 333.024 228.659L364.631 233.338C365.06 233.401 365.361 233.798 365.298 234.242C365.234 234.638 364.901 234.924 364.505 234.924Z" fill="white"/>
<path d="M293.313 105.734L394.811 120.753C396.461 120.991 397.602 122.529 397.365 124.194L393.463 150.521C393.225 152.17 391.687 153.312 390.022 153.074L303.241 140.244L291.109 149.458L292.695 138.69L288.508 138.071C286.859 137.833 285.717 136.295 285.955 134.63L289.856 108.303C290.126 106.638 291.664 105.496 293.313 105.734Z" fill="#EBC170"/>
<path d="M393.463 151.314C393.432 151.314 393.384 151.314 393.352 151.298C392.924 151.234 392.623 150.838 392.686 150.394L396.587 124.067C396.683 123.48 396.524 122.894 396.175 122.418C395.826 121.942 395.303 121.625 394.716 121.546L331.692 112.22C331.264 112.157 330.963 111.76 331.026 111.316C331.09 110.888 331.502 110.587 331.93 110.65L394.954 119.976C395.969 120.118 396.857 120.658 397.46 121.482C398.062 122.307 398.316 123.306 398.173 124.321L394.272 150.647C394.193 151.028 393.86 151.314 393.463 151.314Z" fill="#142B50"/>
<path d="M378.809 127.35C378.778 127.35 378.73 127.35 378.698 127.334L306.841 116.709C306.413 116.645 306.112 116.249 306.175 115.805C306.238 115.376 306.635 115.075 307.079 115.138L378.936 125.764C379.365 125.828 379.666 126.224 379.602 126.668C379.539 127.065 379.19 127.35 378.809 127.35Z" fill="white"/>
<path d="M336.26 129.824C336.228 129.824 336.18 129.824 336.149 129.808L305.556 125.288C305.128 125.225 304.827 124.828 304.89 124.384C304.954 123.956 305.35 123.655 305.794 123.718L336.387 128.238C336.815 128.302 337.116 128.698 337.053 129.142C336.989 129.539 336.656 129.824 336.26 129.824Z" fill="white"/>
<path d="M368.041 142.718C367.994 142.718 367.962 142.718 367.914 142.702L305.89 133.075C305.461 133.012 305.16 132.6 305.223 132.171C305.287 131.743 305.699 131.442 306.127 131.505L368.168 141.148C368.596 141.211 368.898 141.623 368.834 142.052C368.771 142.448 368.438 142.718 368.041 142.718Z" fill="white"/>
<path d="M377.541 135.93C377.509 135.93 377.461 135.93 377.43 135.914L345.823 131.236C345.394 131.172 345.093 130.776 345.157 130.332C345.22 129.903 345.616 129.602 346.061 129.666L377.668 134.344C378.096 134.407 378.397 134.804 378.334 135.248C378.27 135.645 377.921 135.93 377.541 135.93Z" fill="white"/>
<path d="M390.751 177.878C390.72 177.878 390.672 177.878 390.64 177.862L318.783 167.236C318.355 167.173 318.053 166.776 318.117 166.332C318.18 165.904 318.577 165.603 319.021 165.666L390.878 176.292C391.306 176.355 391.608 176.752 391.544 177.196C391.481 177.592 391.132 177.878 390.751 177.878Z" fill="white"/>
<path d="M348.201 180.336C348.17 180.336 348.122 180.336 348.09 180.32L317.498 175.8C317.07 175.737 316.769 175.34 316.832 174.896C316.896 174.468 317.308 174.167 317.736 174.23L348.328 178.75C348.757 178.814 349.058 179.21 348.994 179.654C348.931 180.066 348.598 180.336 348.201 180.336Z" fill="white"/>
<path d="M337.893 187.013C337.861 187.013 337.814 187.013 337.782 186.997L316.309 183.825C315.881 183.762 315.579 183.365 315.643 182.921C315.706 182.493 316.103 182.192 316.547 182.255L338.02 185.427C338.448 185.49 338.749 185.887 338.686 186.331C338.623 186.743 338.29 187.013 337.893 187.013Z" fill="white"/>
<path d="M389.483 186.442C389.451 186.442 389.403 186.442 389.372 186.426L357.764 181.748C357.336 181.684 357.035 181.288 357.098 180.844C357.162 180.415 357.558 180.114 358.002 180.177L389.609 184.856C390.038 184.919 390.339 185.316 390.276 185.76C390.212 186.172 389.879 186.442 389.483 186.442Z" fill="white"/>
<path d="M244.626 370.743L81.8169 389.076C78.6927 389.425 75.8697 387.173 75.5208 384.049L63.7693 279.758C63.7534 279.599 63.8644 279.441 64.0389 279.425L237.537 259.87C237.696 259.855 237.854 259.966 237.87 260.14L249.622 364.478C249.97 367.587 247.734 370.394 244.626 370.743Z" fill="#C09759"/>
<path d="M81.1825 389.917C77.9314 389.917 75.1085 387.458 74.7438 384.144L62.9922 279.853C62.9288 279.25 63.3569 278.711 63.9596 278.648L237.458 259.093C238.06 259.03 238.6 259.458 238.663 260.061L250.415 364.399C250.605 366.112 250.129 367.793 249.051 369.141C247.972 370.489 246.434 371.33 244.721 371.536L81.912 389.869C81.6583 389.901 81.4204 389.917 81.1825 389.917ZM64.6098 280.154L76.3138 383.969C76.6151 386.65 79.0416 388.6 81.7376 388.299L244.531 369.95L244.626 370.743L244.531 369.95C245.815 369.807 246.973 369.157 247.798 368.142C248.607 367.127 248.971 365.858 248.829 364.558L237.125 260.711L64.6098 280.154Z" fill="#243762"/>
<path opacity="0.29" d="M236.998 370.743L89.794 389.092C86.6698 389.441 135.405 326.923 135.056 323.799L63.7693 279.758C63.7534 279.599 63.8644 279.441 64.0389 279.425L237.537 259.87C237.696 259.855 237.854 259.966 237.87 260.14L178.525 318.883C178.858 321.991 240.106 370.394 236.998 370.743Z" fill="#243762"/>
<path d="M64.0389 279.425L135.785 208.47C140.067 204.22 146.696 203.475 151.819 206.647L237.093 259.601C237.236 259.696 237.188 259.918 237.014 259.934L63.7375 279.457" fill="#856A41"/>
<path d="M63.8327 280.25L63.7058 279.076L63.4838 278.854L63.6583 278.68V278.664H63.69L135.246 207.899C139.798 203.38 146.791 202.587 152.247 205.965L237.521 258.935C237.87 259.157 238.044 259.569 237.965 259.966C237.87 260.362 237.537 260.679 237.125 260.727L63.8327 280.25ZM144.952 205.473C141.812 205.473 138.703 206.678 136.34 209.025L66.2274 278.378L235.174 259.347L151.391 207.313C149.392 206.092 147.156 205.473 144.952 205.473Z" fill="#243762"/>
<path opacity="0.29" d="M64.0389 279.425L135.785 208.47C140.067 204.22 146.696 203.475 151.819 206.647L237.093 259.601C237.236 259.696 237.188 259.918 237.014 259.934L63.7375 279.457" fill="#9F7A42"/>
<path d="M143.715 312.84L89.7781 387.871L236.982 371.282L167.71 310.128C160.494 303.769 149.345 305.022 143.715 312.84Z" fill="#F7A9B4"/>
<path d="M88.0971 388.87L143.065 312.381L143.715 312.84L143.065 312.381C145.872 308.463 150.233 305.91 155.022 305.371C159.812 304.832 164.633 306.354 168.233 309.542L238.853 371.885L88.0971 388.87ZM156.925 306.862C156.354 306.862 155.768 306.893 155.197 306.957C150.851 307.448 146.902 309.764 144.349 313.316L91.4592 386.903L235.126 370.711L167.186 310.747C164.347 308.225 160.684 306.862 156.925 306.862Z" fill="#243762"/>
<path d="M72.7931 228.025L186.185 215.242C193.623 214.402 200.236 218.953 200.966 225.408L208.261 290.098L176.733 319.089L135.072 323.783L93.8856 298.044L86.8284 235.368L72.7931 228.025Z" fill="white"/>
<path d="M134.865 324.608L93.1403 298.52L86.083 235.891L75.283 226.962L186.09 214.481C189.881 214.053 193.576 214.941 196.525 216.971C199.507 219.017 201.362 221.998 201.743 225.361L209.07 290.447L177.051 319.882L134.865 324.608ZM94.631 297.568L135.23 322.959L176.369 318.328L207.421 289.797L200.173 225.503C199.84 222.617 198.238 220.032 195.637 218.256C193.005 216.448 189.674 215.655 186.281 216.035L75.4574 228.517L87.5737 234.844L94.631 297.568Z" fill="#243762"/>
<path opacity="0.29" d="M143.715 306.37L89.7781 387.887L236.982 371.298L167.71 303.674C160.494 297.282 149.345 298.551 143.715 306.37Z" fill="#243762"/>
<path d="M143.715 312.84L89.7781 387.871L236.982 371.282L167.71 310.128C160.494 303.769 149.345 305.022 143.715 312.84Z" fill="#C09759"/>
<path d="M88.0971 388.87L143.065 312.381L143.715 312.84L143.065 312.381C145.872 308.463 150.233 305.91 155.022 305.371C159.812 304.832 164.633 306.354 168.233 309.542L238.853 371.885L88.0971 388.87ZM156.925 306.862C156.354 306.862 155.768 306.893 155.197 306.957C150.851 307.448 146.902 309.764 144.349 313.316L91.4592 386.903L235.126 370.711L167.186 310.747C164.347 308.225 160.684 306.862 156.925 306.862Z" fill="#243762"/>
<path opacity="0.35" d="M148.932 329.461L109.332 384.572L217.444 372.392L166.568 327.479C161.255 322.784 153.072 323.704 148.932 329.461Z" fill="#EBC170"/>
<path d="M64.5303 278.91L63.6915 280.256L134.637 324.469L135.476 323.123L64.5303 278.91Z" fill="#243762"/>
<path d="M237.304 259.432L177.986 318.341L179.103 319.466L238.421 260.558L237.304 259.432Z" fill="#243762"/>
<path d="M89.9684 264.248L70.1763 266.484L66.9887 238.254C66.4019 233.036 70.1605 228.326 75.3622 227.739L76.2662 227.644C81.4838 227.058 86.194 230.816 86.7808 236.018L89.9684 264.248Z" fill="#ECF1F7"/>
<path d="M69.4785 267.356L66.2116 238.333C65.9102 235.606 66.6715 232.91 68.4001 230.753C70.1129 228.596 72.571 227.248 75.2988 226.946L76.2028 226.851C78.9464 226.55 81.6266 227.311 83.7675 229.04C85.9244 230.753 87.2724 233.211 87.5737 235.939L90.8407 264.961L69.4785 267.356ZM77.3605 228.374C77.0274 228.374 76.6944 228.39 76.3614 228.437L75.4574 228.532C73.142 228.786 71.0803 229.944 69.6213 231.752C68.1781 233.576 67.512 235.844 67.7816 238.159L70.8741 265.611L89.0803 263.566L85.9878 236.113C85.7341 233.798 84.5764 231.736 82.7684 230.277C81.2142 229.024 79.327 228.374 77.3605 228.374Z" fill="#243762"/>
<path d="M103.401 249.546C103.005 249.546 102.656 249.245 102.608 248.848C102.561 248.42 102.878 248.024 103.306 247.976L185.472 238.714C185.916 238.667 186.296 238.984 186.344 239.412C186.392 239.84 186.074 240.237 185.646 240.284L103.48 249.546C103.464 249.546 103.433 249.546 103.401 249.546Z" fill="#243762"/>
<path d="M106.557 277.474C106.161 277.474 105.812 277.173 105.764 276.776C105.716 276.348 106.034 275.952 106.462 275.904L188.612 266.642C189.04 266.595 189.436 266.912 189.484 267.34C189.532 267.768 189.214 268.165 188.786 268.212L106.636 277.474C106.62 277.474 106.589 277.474 106.557 277.474Z" fill="#243762"/>
<path d="M104.955 263.359C104.559 263.359 104.21 263.058 104.162 262.662C104.115 262.233 104.432 261.837 104.86 261.789L140.369 257.793C140.797 257.745 141.193 258.062 141.241 258.491C141.288 258.919 140.971 259.315 140.543 259.363L105.035 263.359C105.019 263.359 104.987 263.359 104.955 263.359Z" fill="#243762"/>
<path d="M149.757 258.3C149.361 258.3 149.012 257.999 148.964 257.603C148.917 257.174 149.234 256.778 149.662 256.73L187.026 252.528C187.47 252.48 187.851 252.797 187.898 253.225C187.946 253.654 187.629 254.05 187.2 254.098L149.836 258.3C149.821 258.3 149.789 258.3 149.757 258.3Z" fill="#243762"/>
<path d="M108.333 293.318C107.937 293.318 107.588 293.016 107.54 292.62C107.493 292.192 107.81 291.795 108.238 291.748L143.747 287.751C144.175 287.703 144.571 288.021 144.619 288.449C144.666 288.877 144.349 289.274 143.921 289.321L108.413 293.318C108.397 293.318 108.365 293.318 108.333 293.318Z" fill="#243762"/>
</g>
<defs>
<clipPath id="clip0">
<rect width="505" height="422" fill="white"/>
</clipPath>
</defs>
</svg>
